<?xml version="1.0" standalone="no"?>
<!DOCTYPE svg PUBLIC "-//W3C//DTD SVG 1.1//EN" "http://www.w3.org/Graphics/SVG/1.1/DTD/svg11.dtd" >
<svg xmlns="http://www.w3.org/2000/svg" xmlns:xlink="http://www.w3.org/1999/xlink" version="1.1">
<metadata>
Created by FontForge 20170731 at Wed Mar 11 12:39:58 2015
 By Aleksey,,,
Copyright (c) 2011-2012 Durotype, www.durotype.com. All rights reserved.
</metadata>
<defs>
<font id="FlexoW01-Bold" horiz-adv-x="2240" >
  <font-face 
    font-family="FlexoW01-Bold"
    font-weight="700"
    font-stretch="normal"
    units-per-em="3333"
    panose-1="1 0 0 0 0 0 0 0 0 0"
    ascent="2666"
    descent="-667"
    x-height="1781"
    cap-height="2330"
    bbox="-157 -717 3954 3205"
    underline-thickness="166"
    underline-position="-749"
    unicode-range="U+0020-2122"
  />
<missing-glyph horiz-adv-x="2081" 
d="M209 2400h1663v-2400h-1663v2400zM376 2074v-1748l565 874zM1041 1046l-566 -875h1131zM475 2228l566 -874l565 874h-1131zM1141 1200l565 -874v1748z" />
    <glyph glyph-name=".notdef" horiz-adv-x="2081" 
d="M209 2400h1663v-2400h-1663v2400zM376 2074v-1748l565 874zM1041 1046l-566 -875h1131zM475 2228l566 -874l565 874h-1131zM1141 1200l565 -874v1748z" />
    <glyph glyph-name=".null" horiz-adv-x="0" 
 />
    <glyph glyph-name="nonmarkingreturn" horiz-adv-x="1111" 
 />
    <glyph glyph-name="space" unicode=" " horiz-adv-x="850" 
 />
    <glyph glyph-name="exclam" unicode="!" horiz-adv-x="982" 
d="M490 -24q-75 0 -125 13t-80.5 43t-43 78t-12.5 117t13 117t43.5 78t80.5 43t124 13t124.5 -13t81 -43t43.5 -78t13 -117t-13 -117t-43 -78t-80.5 -43t-125.5 -13zM229 2330h522l-70 -1648h-383z" />
    <glyph glyph-name="quotedbl" unicode="&#x22;" horiz-adv-x="1366" 
d="M184 2469h390l-32 -945h-326zM792 2469h390l-31 -945h-327z" />
    <glyph glyph-name="numbersign" unicode="#" horiz-adv-x="1959" 
d="M683 2330h314l-97 -659h333l98 659h313l-97 -659h291v-308h-335l-57 -393h298v-308h-344l-98 -662h-314l98 662h-334l-97 -662h-314l98 662h-318v308h364l57 393h-334v308h378zM1133 970l57 393h-334l-57 -393h334z" />
    <glyph glyph-name="dollar" unicode="$" horiz-adv-x="1727" 
d="M161 408q62 -9 138 -18.5t155.5 -16.5t157 -11.5t142.5 -4.5q89 0 160 12t120.5 43t76 85.5t26.5 140.5q0 79 -29.5 130.5t-80 86t-119 58t-146.5 47.5q-152 47 -272 98.5t-202.5 126.5t-126 183.5t-43.5 268.5q0 157 39 270t114.5 189t187 118.5t255.5 58.5v313h316
v-304q76 -3 151 -10t145 -16.5t132.5 -20.5t114.5 -22l-41 -352q-55 9 -116 17.5t-125 15.5t-129 11.5t-128 4.5q-45 0 -97 -1.5t-103 -8.5t-98 -21.5t-82.5 -40.5t-57 -65.5t-21.5 -95.5q0 -85 28.5 -137.5t82 -86t130.5 -56.5t174 -49q162 -44 279 -100.5t192.5 -137.5
t111.5 -192t36 -264q0 -156 -39.5 -272t-115 -196.5t-186.5 -128t-255 -66.5v-317h-316v303q-168 4 -311 23t-269 46l44 362v0z" />
    <glyph glyph-name="percent" unicode="%" horiz-adv-x="2873" 
d="M640 957q-162 0 -263 43t-158 129t-77.5 216t-20.5 304t20.5 304.5t77.5 216.5t158 129t263 43q161 0 262 -43t158 -129t77.5 -216.5t20.5 -304.5t-20.5 -304t-77.5 -216t-158 -129t-262 -43zM640 1201q75 0 116 32t60.5 90.5t23.5 141.5t4 184t-4 183.5t-23.5 141.5
t-61 91.5t-115.5 32.5q-75 0 -116 -32.5t-60.5 -91.5t-23.5 -141.5t-4 -183.5t3.5 -184t23 -141.5t61 -90.5t116.5 -32zM2219 -12q-161 0 -262 43t-158 129t-77.5 216.5t-20.5 304.5t20.5 304t77.5 216.5t158 129.5t262 43q162 0 263 -43t158 -129.5t77.5 -216.5t20.5 -304
t-20.5 -304.5t-77.5 -216.5t-158 -129t-263 -43zM2219 233q75 0 116 32t60.5 90.5t23.5 141.5t4 184t-4 184t-23.5 142t-60.5 91t-116 32q-74 0 -115 -32t-60.5 -91t-23.5 -142t-4 -184t4 -184t23.5 -141.5t60.5 -90.5t115 -32zM1959 2378h308l-1368 -2426h-307z" />
    <glyph glyph-name="ampersand" unicode="&#x26;" horiz-adv-x="2284" 
d="M1683 0l-139 162q-58 -51 -124.5 -86.5t-143.5 -57.5t-167.5 -32t-196.5 -10q-399 0 -593.5 170t-194.5 514q0 119 31.5 213t90 168t141.5 131.5t187 103.5q-41 52 -80 104.5t-69 112t-48 130.5t-18 162q0 157 50 265.5t137.5 176t205.5 97.5t255 30q81 0 159 -12.5
t147.5 -39.5t127.5 -69t100.5 -102t66 -138t23.5 -176q0 -122 -37.5 -219t-101.5 -174t-149 -134.5t-180 -99.5l369 -404q29 66 43 144.5t21 175.5l403 -17q-9 -95 -23.5 -179t-37 -161t-53.5 -148.5t-73 -141.5l413 -459h-542zM1217 1782q0 67 -16.5 112t-45.5 72t-70 38.5
t-89 11.5q-46 0 -86.5 -13t-70.5 -41.5t-47.5 -74t-17.5 -110.5q0 -53 13 -97.5t35 -84t51.5 -76t62.5 -72.5q48 24 97.5 55t90.5 72t67 92t26 116zM803 1007q-58 -38 -102 -74.5t-74 -79t-45 -95.5t-15 -123q0 -83 34 -143t88.5 -99t123 -57.5t138.5 -18.5q63 0 115.5 12.5
t95.5 32t76 43t57 46.5z" />
    <glyph glyph-name="quotesingle" unicode="'" horiz-adv-x="758" 
d="M184 2469h390l-31 -945h-327z" />
    <glyph glyph-name="parenleft" unicode="(" horiz-adv-x="1080" 
d="M977 2221q-79 -77 -137.5 -175t-100 -207.5t-67.5 -227.5t-41.5 -236t-21 -232t-5.5 -215q0 -102 5 -216t19.5 -232t40.5 -236t67.5 -228t100 -207t139.5 -174l-252 -210q-169 140 -279.5 313.5t-175 367.5t-90 402.5t-25.5 419.5q0 140 11 280t36.5 276t68 265.5
t106 249.5t149.5 228.5t199 202.5z" />
    <glyph glyph-name="parenright" unicode=")" horiz-adv-x="1080" 
d="M103 -365q80 77 139 174t100.5 207t67.5 228t40.5 236t20 232t5.5 216q0 101 -5.5 215t-21 232t-41.5 236t-67.5 228t-100 207.5t-137.5 174.5l253 209q169 -140 279.5 -313.5t175 -367t90 -402t25.5 -419.5t-25.5 -419.5t-90 -402.5t-175 -367.5t-279.5 -313.5z" />
    <glyph glyph-name="asterisk" unicode="*" horiz-adv-x="1510" 
d="M754 1475l-198 -341l-250 140l200 347h-398v282h397l-200 347l251 142l198 -345l198 345l251 -142l-204 -347h403v-282h-402l200 -350l-248 -137z" />
    <glyph glyph-name="plus" unicode="+" horiz-adv-x="1917" 
d="M765 1806h385v-637h636v-377h-636v-641h-385v641h-634v377h634v637z" />
    <glyph glyph-name="comma" unicode="," horiz-adv-x="909" 
d="M290 455h492l-339 -888h-362z" />
    <glyph glyph-name="hyphen" unicode="-" horiz-adv-x="1298" 
d="M209 1064h880v-356h-880v356z" />
    <glyph glyph-name="period" unicode="." horiz-adv-x="883" 
d="M441 -24q-76 0 -126.5 13t-80.5 43t-42.5 79t-12.5 121q0 73 13 122t43 79t80.5 42.5t125.5 12.5t125.5 -12.5t81 -42.5t43.5 -79t13 -122q0 -72 -12.5 -121t-42.5 -79t-81 -43t-127 -13z" />
    <glyph glyph-name="slash" unicode="/" horiz-adv-x="1505" 
d="M1025 2412h380l-945 -2680h-380z" />
    <glyph glyph-name="zero" unicode="0" horiz-adv-x="2074" 
d="M1037 -24q-175 0 -306 31.5t-225 95.5t-154.5 160t-96 224t-49.5 288.5t-14 354.5q0 193 14 354t49.5 289t96 224t154.5 160t225 95.5t306 31.5t306 -31.5t224.5 -95.5t154.5 -160t96 -224t49 -289t14 -354t-14 -354t-49 -289t-96 -224t-154.5 -160t-224.5 -95.5
t-306 -31.5zM1037 345q93 0 158 25.5t107.5 73.5t66 116.5t34.5 156t13.5 191.5t2.5 222t-2.5 222t-14 191.5t-35 156.5t-66 117t-107 73.5t-157.5 25.5q-94 0 -158.5 -25.5t-107 -73.5t-66 -117t-35 -156.5t-14 -191.5t-2.5 -222t2.5 -222t14 -191.5t35 -156t66 -116.5
t107 -73.5t158.5 -25.5z" />
    <glyph glyph-name="one" unicode="1" horiz-adv-x="1277" 
d="M570 1802q-46 -12 -105.5 -24t-125.5 -23.5t-134.5 -21.5t-132.5 -17l-20 365q103 15 191.5 36t164.5 44.5t140 48.5t117 50h361v-2260h-456v1802z" />
    <glyph glyph-name="two" unicode="2" horiz-adv-x="1903" 
d="M173 2207q161 31 349.5 54t393.5 23q114 0 218 -11t194 -37t163 -69t125 -107t80 -151.5t28 -201.5q0 -156 -41.5 -284t-124 -231.5t-206 -185t-288.5 -146.5q-80 -32 -139 -62.5t-102 -63t-71 -68.5t-47 -77t-30 -89t-19 -105h1067v-395h-1587q32 179 60 322t63 257.5
t82 204.5t115 163.5t163 134.5t227 117q106 45 184 88t129 92.5t76 109.5t25 138q0 85 -26 138.5t-88.5 83.5t-166 41t-257.5 11q-53 0 -117 -4t-130.5 -10.5t-133 -15t-125.5 -18.5z" />
    <glyph glyph-name="three" unicode="3" horiz-adv-x="1874" 
d="M847 2284q109 0 212.5 -9t196 -33t170 -65.5t133.5 -106.5t87.5 -156.5t31.5 -214.5q0 -170 -76.5 -300.5t-237.5 -208.5q86 -33 151 -78t109 -104.5t66.5 -136.5t22.5 -174q0 -208 -60.5 -346.5t-174 -222t-276 -118t-367.5 -34.5q-102 0 -195 6.5t-179.5 17
t-167.5 24.5t-160 29l50 357q70 -9 143 -18t145.5 -16t143.5 -11.5t136 -4.5q124 0 215 12t151 46.5t89 97.5t29 164q0 136 -61.5 206.5t-181.5 85.5q-55 7 -109.5 12t-112 8t-119 4t-128.5 1h-41v337q133 3 261.5 15t248.5 29q118 17 168 86.5t50 186.5q0 87 -30 138
t-83.5 77t-126.5 33.5t-160 7.5q-150 0 -302 -15t-305 -35l-47 351q151 29 324 52.5t367 23.5z" />
    <glyph glyph-name="four" unicode="4" horiz-adv-x="1994" 
d="M1150 509h-760q-87 0 -145 17.5t-92.5 49t-48.5 75t-14 96.5q0 24 4.5 55.5t21 73.5t48.5 97t88 127l756 973q49 63 92.5 104t85.5 65t85.5 33t92.5 9t92 -16.5t74.5 -50t49.5 -84t18 -118.5v-1150h277v-356h-277v-509h-448v509zM544 865h608v813z" />
    <glyph glyph-name="five" unicode="5" horiz-adv-x="1899" 
d="M652 1423q36 2 74.5 3t67.5 1q135 0 257.5 -9.5t226.5 -37t188.5 -77t143.5 -128.5t91 -191.5t32 -266.5q0 -200 -56 -340.5t-164.5 -229.5t-268 -130t-366.5 -41q-191 0 -374 20.5t-353 58.5l49 357q139 -20 282.5 -35.5t289.5 -15.5q133 0 225 13.5t149 55t82.5 119.5
t25.5 207q0 69 -22 119.5t-61 85t-92.5 55.5t-117 32.5t-134.5 15.5t-144 4q-125 0 -239.5 -3t-238.5 -9l83 1204h1391v-392h-996z" />
    <glyph glyph-name="six" unicode="6" horiz-adv-x="2021" 
d="M1052 1447q128 0 239.5 -13t203.5 -44.5t163.5 -84.5t121 -133t75 -189.5t25.5 -254.5q0 -151 -28.5 -265.5t-81.5 -198t-130 -139t-174 -88.5t-212.5 -47t-246.5 -14q-168 0 -294.5 29.5t-218.5 86t-152 139t-96 187t-50.5 231t-14.5 271.5q0 259 21.5 461t74.5 353.5
t144 256.5t229 170t329.5 94t446.5 29h32t48 -0.5t77.5 -1.5t121.5 -3l36 -357q-77 -3 -163.5 -3t-176 -2.5t-178.5 -11t-170.5 -28.5t-151.5 -54t-121.5 -88.5t-81.5 -132.5t-31 -184q40 6 86.5 11t96 9t100.5 6.5t102 2.5zM995 1100q-41 0 -87.5 -2.5t-93 -7t-90.5 -9.5
t-81 -11q-5 -48 -6 -97t-1 -102q0 -67 4.5 -132t18 -123.5t38 -107.5t65 -85t98.5 -56.5t138 -20.5q123 0 205 20t131 66t69 120t20 182q0 112 -29 183t-84.5 111.5t-135 56t-179.5 15.5z" />
    <glyph glyph-name="seven" unicode="7" horiz-adv-x="1748" 
d="M800 0h-519l916 1866h-1100v394h1328q132 0 200.5 -57t68.5 -154q0 -34 -8.5 -68t-27.5 -76z" />
    <glyph glyph-name="eight" unicode="8" horiz-adv-x="2020" 
d="M1012 2284q93 0 189.5 -9t187.5 -32.5t171 -64t140 -103.5t94.5 -152t34.5 -208q0 -95 -13 -170.5t-49 -139t-99 -119t-163 -109.5q82 -46 147.5 -98t111.5 -116.5t70.5 -145.5t24.5 -186q0 -135 -30.5 -236t-86 -173.5t-133 -120t-171.5 -75.5t-202 -39t-224 -11
q-188 0 -344 31.5t-268.5 107t-175 201t-62.5 314.5q0 103 23.5 181.5t69.5 141.5t112 115t152 102q-79 42 -139.5 92.5t-101.5 115t-62 147.5t-21 190q0 119 34 207.5t93 151.5t139 104t170.5 64.5t188 32.5t192.5 9zM1012 336q83 0 155.5 12.5t126.5 46.5t85 92.5
t31 151.5q0 58 -7.5 104t-28 82t-55.5 63.5t-90 48t-132.5 34.5t-181.5 25q-71 -15 -127.5 -43t-95.5 -71.5t-60 -104t-21 -138.5q0 -93 30 -152t83.5 -92.5t127 -46t160.5 -12.5zM1110 1347q72 19 126.5 43t91 59.5t55 86t18.5 122.5q0 88 -29.5 142t-81.5 83.5
t-123.5 39.5t-154.5 10q-80 0 -150 -9.5t-122 -39t-81.5 -83.5t-29.5 -143q0 -43 6.5 -81t25.5 -71t52.5 -59.5t87 -47t129.5 -33.5t180 -19z" />
    <glyph glyph-name="nine" unicode="9" horiz-adv-x="2022" 
d="M967 813q-128 0 -239.5 13t-203.5 44.5t-163.5 84.5t-121 133t-75 189.5t-25.5 254.5q0 151 28.5 265.5t81.5 198t130 139t174 88.5t212.5 47t246.5 14q168 0 294.5 -29.5t218.5 -86t152 -139t96 -187t50.5 -231t14.5 -271.5q0 -259 -21.5 -461t-74.5 -353.5t-144 -256.5
t-229 -170t-329.5 -94t-446.5 -29h-32.5t-47.5 0.5t-77.5 1.5t-121.5 3l-36 357q77 3 163.5 3t176 2.5t178.5 11t170.5 28.5t151.5 54t121.5 88.5t81.5 132t31 184.5q-41 -6 -87 -11t-95.5 -9t-100.5 -6.5t-102 -2.5zM1024 1160q41 0 87.5 2.5t93 7t90.5 9.5t81 11
q5 48 6 97t1 102q0 67 -4.5 132t-18 123.5t-38 107.5t-65 85t-98.5 56.5t-138 20.5q-123 0 -205 -20t-131 -66t-69.5 -120t-20.5 -182q0 -112 29.5 -183t84.5 -111.5t134.5 -56t180.5 -15.5z" />
    <glyph glyph-name="colon" unicode=":" horiz-adv-x="987" 
d="M493 -24q-77 0 -127.5 13t-80.5 43t-42 79t-12 121q0 73 12.5 122t43 79t81 42.5t125.5 12.5t125.5 -12.5t81 -42.5t43.5 -79t13 -122q0 -72 -12.5 -121t-42.5 -79t-81 -43t-127 -13zM493 1143q-77 0 -127.5 12.5t-80.5 42.5t-42 79t-12 122t12.5 122t43 79t81 42.5
t125.5 12.5t125.5 -12.5t81 -42.5t43.5 -79t13 -122t-12.5 -122t-42.5 -79t-81 -42.5t-127 -12.5z" />
    <glyph glyph-name="semicolon" unicode=";" horiz-adv-x="983" 
d="M577 1143q-77 0 -127.5 12.5t-80.5 42.5t-42 79t-12 122t12.5 122t43 79t81 42.5t125.5 12.5t125.5 -12.5t81 -42.5t43.5 -79t13 -122t-12.5 -122t-42.5 -79t-81 -42.5t-127 -12.5zM322 455h493l-339 -888h-363z" />
    <glyph glyph-name="less" unicode="&#x3c;" horiz-adv-x="2053" 
d="M125 1148l1698 705v-396l-1169 -478l1169 -479v-396l-1698 706v338z" />
    <glyph glyph-name="equal" unicode="=" horiz-adv-x="2097" 
d="M221 810h1655v-379h-1655v379zM221 1526h1655v-379h-1655v379z" />
    <glyph glyph-name="greater" unicode="&#x3e;" horiz-adv-x="2053" 
d="M1398 979l-1168 478v396l1698 -705v-338l-1698 -706v396z" />
    <glyph glyph-name="question" unicode="?" horiz-adv-x="1769" 
d="M537 682l-8 219q0 7 -0.5 18t-1 23t-1 22.5t-0.5 17.5q0 109 27.5 173.5t73 100.5t103 52t118 26.5t118 24t103 45t73 90t27.5 158.5q0 88 -20 147t-70.5 94.5t-135 50.5t-213.5 15q-162 0 -304 -14.5t-253 -36.5l-79 367q72 17 154.5 31.5t171 25t180.5 16.5t184 6
q130 0 245 -9.5t212 -36.5t173.5 -75.5t130 -126.5t82 -190t28.5 -266q0 -120 -20 -208.5t-54 -152t-79.5 -106t-96.5 -70.5t-105.5 -45t-106 -30t-98 -25t-81.5 -30t-56.5 -45.5t-23.5 -71.5l-8 -184h-389zM470 227q0 69 13 117t43.5 78t80.5 43t125 13q74 0 124.5 -13
t81 -43t43.5 -78t13 -117t-13 -117t-43 -78t-80.5 -43t-125.5 -13t-125.5 13t-81 43t-43 78t-12.5 117z" />
    <glyph glyph-name="at" unicode="@" horiz-adv-x="2970" 
d="M2764 1353q30 -100 45.5 -215t15.5 -247q0 -317 -87.5 -542t-257 -369t-418 -211t-570.5 -67q-324 0 -573 67t-418.5 211t-256.5 369t-87 542q0 325 90.5 551.5t265 368t429.5 205.5t583 64q134 0 253 -28t208.5 -93.5t142 -174.5t52.5 -271v-693q0 -90 -4 -169.5
t-12 -161.5q-55 -36 -131 -65t-166.5 -50t-193 -32.5t-210.5 -11.5q-183 0 -311.5 36t-209.5 106.5t-118.5 175.5t-37.5 243q0 118 27 212t85.5 164.5t150.5 117t223 70.5q55 10 118.5 17t130.5 12.5t134.5 9.5t129.5 7q0 73 -14 122.5t-46 79.5t-85.5 42.5t-132.5 12.5
q-223 0 -399 -41.5t-297.5 -141t-185.5 -266.5t-64 -418q0 -247 62.5 -413.5t181.5 -267t292 -143t394 -42.5q222 0 395 42.5t292 143t181.5 266.5t62.5 414q0 101 -11 188.5t-31 162.5zM1786 1235q-38 -1 -86.5 -4t-99 -8t-97 -12t-80.5 -17q-65 -18 -110.5 -38.5
t-73.5 -52.5t-40.5 -80.5t-12.5 -122.5q0 -81 21.5 -132.5t64 -81t105.5 -41t146 -11.5q23 0 57 4t70.5 11.5t70 18t55.5 23.5q5 52 7.5 112t2.5 118v314z" />
    <glyph glyph-name="A" unicode="A" horiz-adv-x="2239" 
d="M51 0l693 2029q58 171 153.5 248t229.5 77q130 0 227 -79.5t153 -245.5l681 -2029h-502l-178 577h-795l-174 -577h-488zM1397 940l-290 942l-285 -942h575z" />
    <glyph glyph-name="B" unicode="B" horiz-adv-x="2139" 
d="M1011 2354q110 0 222 -8.5t216 -33t194.5 -68.5t157.5 -114.5t105.5 -171t38.5 -237.5q0 -87 -21.5 -168.5t-64.5 -150.5t-107.5 -123t-150.5 -87q80 -27 149.5 -72.5t120.5 -114t80 -163t29 -219.5q0 -136 -35 -237t-97 -173t-148.5 -118t-190 -72.5t-220 -36.5
t-239.5 -10q-227 0 -425 16t-372 47v2250q70 13 158.5 25t186.5 21t203 14t210 5zM722 1019v-648q72 -10 149 -15t167 -5q104 0 191 11.5t149.5 46t97 99t34.5 170.5q0 111 -37 178t-101.5 103t-153 48t-191.5 12h-305zM1027 1362q100 0 184.5 11.5t145.5 45.5t95 96.5
t34 164.5t-33.5 162.5t-96 91.5t-150 40t-195.5 9q-65 0 -141 -5t-147 -14v-602h304z" />
    <glyph glyph-name="C" unicode="C" horiz-adv-x="1873" 
d="M1758 46q-115 -31 -270.5 -50.5t-338.5 -19.5q-193 0 -340 30.5t-254 94t-178.5 160t-114.5 228.5t-60.5 300.5t-17.5 375.5t18 375.5t60.5 300.5t114 229t178.5 160t254 93.5t340 30.5q184 0 339 -20t270 -51l-42 -365q-115 19 -235 29.5t-245 10.5q-140 0 -236.5 -27
t-160 -77t-98.5 -121t-51.5 -159t-20 -191.5t-3.5 -217.5q0 -115 3 -218.5t19.5 -191.5t51.5 -159t98.5 -120.5t160 -76.5t237.5 -27q124 0 245 10.5t234 29.5z" />
    <glyph glyph-name="D" unicode="D" horiz-adv-x="2230" 
d="M947 1967q-65 0 -120.5 -5t-100.5 -11v-1572q45 -7 100.5 -12t120.5 -5q154 0 259.5 28t174 79t106 123.5t55.5 162t21 193t3 217.5t-3 217.5t-21 192.5t-55.5 161.5t-106 123.5t-174.5 79t-259 28zM253 2288q74 14 163 26t187 21t201.5 14t207.5 5q218 0 379 -33
t275.5 -99t187 -165.5t114 -231.5t57 -297t15.5 -363t-15.5 -363t-57 -297t-114 -231.5t-187 -165.5t-275.5 -99t-379 -33q-105 0 -208.5 5t-201 13.5t-186 20t-163.5 25.5v2248z" />
    <glyph glyph-name="E" unicode="E" horiz-adv-x="1896" 
d="M1683 1952h-643q-105 0 -169 -13t-99 -48t-47 -96.5t-12 -157.5v-264h926v-376h-926v-302q0 -97 12 -158.5t47 -97t99 -48.5t169 -13h643v-366q-41 -2 -93 -4t-109.5 -4t-117 -4t-116.5 -3t-107.5 -2t-89.5 -1q-105 0 -206 4t-191 22t-165.5 54t-130.5 99t-85.5 158
t-30.5 232v1205q0 136 30.5 231.5t85.5 158.5t130.5 98.5t165.5 53.5t191 22t206 4q63 0 147.5 -1.5t172 -4t170.5 -5.5t143 -6v-367z" />
    <glyph glyph-name="F" unicode="F" horiz-adv-x="1800" 
d="M248 0v1768q0 136 31 231.5t85.5 158.5t130.5 98.5t166 53.5t191 22t206 4q63 0 147.5 -1.5t172 -4t170.5 -5.5t143 -6v-367h-643q-105 0 -169 -13t-99 -48t-47 -96.5t-12 -157.5v-264h926v-376h-926v-997h-473z" />
    <glyph glyph-name="G" unicode="G" horiz-adv-x="2150" 
d="M1121 1304h828v-873q0 -107 -27 -182.5t-77.5 -126t-122 -80t-160 -44t-192 -18.5t-218.5 -4q-193 0 -339.5 30.5t-254 94t-179 160t-114.5 228.5t-61 300.5t-18 375.5q0 209 18 378.5t61 301.5t114.5 228t179 158.5t254 92.5t339.5 30q198 0 382 -16t363 -53l-41 -365
q-152 23 -308.5 32t-308.5 9q-140 0 -236.5 -27t-160 -77.5t-99 -121.5t-52 -159.5t-20 -192t-3.5 -218.5t3.5 -219t20 -193t51.5 -160t98.5 -121t159.5 -77t236 -27q91 0 144 13.5t80 39.5t34 63.5t7 86.5v368h-381v365z" />
    <glyph glyph-name="H" unicode="H" horiz-adv-x="2297" 
d="M1568 2330h476v-2330h-476v997h-840v-997h-474v2330h474v-946h840v946z" />
    <glyph glyph-name="I" unicode="I" horiz-adv-x="974" 
d="M250 2330h474v-2330h-474v2330z" />
    <glyph glyph-name="J" unicode="J" horiz-adv-x="1407" 
d="M693 2330h476v-1556q0 -214 -34 -365.5t-116.5 -247.5t-220 -140.5t-344.5 -44.5q-48 0 -103.5 5t-110 14.5t-106 23.5t-92.5 33l40 354q80 -26 157.5 -40.5t167.5 -14.5q52 0 103.5 15.5t92 55t65.5 108.5t25 177v1623z" />
    <glyph glyph-name="K" unicode="K" horiz-adv-x="2112" 
d="M728 1250l775 1080h550l-836 -1115l850 -1215h-575l-764 1144v-1144h-474v2330h474v-1080z" />
    <glyph glyph-name="L" unicode="L" horiz-adv-x="1690" 
d="M1653 10q-62 -3 -142.5 -5.5t-163 -5t-159 -4t-131.5 -1.5q-105 0 -206 4t-191 22t-165.5 54t-130.5 99t-85.5 158t-30.5 232v1767h474v-1635q0 -97 11.5 -158.5t46.5 -97t99 -48.5t169 -13h605v-368z" />
    <glyph glyph-name="M" unicode="M" horiz-adv-x="2796" 
d="M1394 897l463 1156q60 149 150.5 225t192.5 76q78 0 133 -19t90.5 -60t53.5 -107t22 -160l90 -2008h-456l-57 1670h-2l-418 -1143q-40 -109 -103.5 -163t-155.5 -54q-94 0 -157 53.5t-105 163.5l-431 1139h-2l-56 -1666h-439l93 2010q4 89 22.5 154t54.5 107t90.5 62.5
t131.5 20.5q51 0 98.5 -17t90.5 -53t80.5 -91.5t67.5 -132.5z" />
    <glyph glyph-name="N" unicode="N" horiz-adv-x="2361" 
d="M1682 621v1709h425v-1999q0 -93 -19 -160t-55.5 -110.5t-90 -64t-121.5 -20.5q-65 0 -119 15.5t-102 51t-92 94.5t-89 146l-739 1432v-1715h-425v2000q0 93 19.5 160t56.5 110t90 63.5t120 20.5q61 0 114.5 -16t102.5 -52.5t94.5 -95t89.5 -142.5z" />
    <glyph glyph-name="O" unicode="O" 
d="M1121 -24q-181 0 -320.5 29.5t-243 91t-174 157.5t-114 228t-62 302t-18.5 381t18.5 381t62 302t114 228t174 157.5t243 91t320.5 29.5t320.5 -29.5t243 -91t173.5 -157.5t113.5 -228t62 -302t18.5 -381t-18.5 -381t-62 -302t-113.5 -228t-173.5 -157.5t-243 -91
t-320.5 -29.5zM1121 366q110 0 186.5 26t126.5 75.5t78 120t41 159.5t16 194t3 224t-3 224.5t-16 194t-41 159.5t-78 120t-126.5 75.5t-186.5 26.5q-111 0 -187 -26.5t-126.5 -75.5t-78.5 -120t-41 -159.5t-16 -194t-3 -224.5t3 -224t16 -194t41 -159.5t78.5 -120
t126.5 -75.5t187 -26z" />
    <glyph glyph-name="P" unicode="P" horiz-adv-x="2055" 
d="M726 0h-472v2290q76 14 164.5 25.5t185.5 20t200 13.5t208 5q130 0 249.5 -10.5t223.5 -39.5t189.5 -81t146 -134t94 -199t33.5 -276q0 -155 -30.5 -271t-87 -199.5t-137.5 -138t-182 -86.5t-220.5 -45t-253.5 -13q-77 0 -160 3t-151 8v-872zM726 1246q72 -9 143.5 -11
t144.5 -2q112 0 198.5 17t145.5 59.5t90 116.5t31 188q0 99 -22.5 169.5t-76 115t-140.5 65t-216 20.5q-71 0 -148.5 -5t-149.5 -15v-718z" />
    <glyph glyph-name="Q" unicode="Q" 
d="M1121 -24q-181 0 -320.5 29.5t-243 91t-174 157.5t-114 228t-62 302t-18.5 381t18.5 381t62 302t114 228t174 157.5t243 91t320.5 29.5t320.5 -29.5t243 -91t173.5 -157.5t113.5 -228t62 -302t18.5 -381q0 -237 -24 -422t-79.5 -323t-146.5 -231t-226 -145
q39 -56 82.5 -98.5t93.5 -78t108 -68t127 -68.5l-308 -220q-72 35 -151.5 74t-155.5 92t-141.5 125t-109.5 174zM1572 1165q0 119 -3 224.5t-16 194t-41 159.5t-78 120t-126.5 75.5t-186.5 26.5q-111 0 -187 -26.5t-126.5 -75.5t-78.5 -120t-41 -159.5t-16 -194t-3 -224.5
t3 -224t16 -194t41 -159.5t78.5 -120t126.5 -75.5t187 -26q110 0 186.5 26t126.5 75.5t78 120t41 159.5t16 194t3 224z" />
    <glyph glyph-name="R" unicode="R" horiz-adv-x="2146" 
d="M726 0h-472v2290q76 14 164.5 25.5t185.5 20t200 13.5t208 5q129 0 248.5 -10.5t223.5 -39.5t189.5 -80t146.5 -132.5t94.5 -197t33.5 -272.5q0 -155 -31.5 -270t-89.5 -198t-140.5 -136.5t-185.5 -84.5l532 -933h-544l-478 879q-72 0 -147.5 3t-137.5 7v-889zM726 1265
q72 -8 143.5 -10t144.5 -2q110 0 196.5 16.5t146.5 58t91.5 113.5t31.5 183q0 97 -23.5 165.5t-77 112t-141 63.5t-214.5 20q-70 0 -148 -5t-150 -15v-700z" />
    <glyph glyph-name="S" unicode="S" horiz-adv-x="1843" 
d="M1103 1969q-47 0 -100.5 -1.5t-106 -9t-100.5 -22.5t-85 -42t-59 -67.5t-22 -98.5q0 -88 29 -141.5t84.5 -88t134.5 -58t180 -50.5q167 -45 287.5 -103t198.5 -141.5t115 -198t37 -272.5q0 -193 -57.5 -326t-168 -216t-271.5 -120t-368 -37q-197 0 -364 20.5t-309 51.5
l46 373q64 -9 142 -18.5t160 -17t161.5 -12t146.5 -4.5q92 0 165 12t124 44.5t78.5 88.5t27.5 144q0 81 -30 134t-82.5 88.5t-123 60t-151.5 49.5q-157 48 -280 101t-208.5 130.5t-130.5 189t-45 276.5q0 189 55 317t161 206t261.5 111t356.5 33q93 0 185.5 -6.5
t178.5 -16.5t163.5 -23.5t139.5 -26.5l-43 -363q-57 9 -119.5 18t-128.5 16.5t-133 12t-132 4.5z" />
    <glyph glyph-name="T" unicode="T" horiz-adv-x="1736" 
d="M1677 1948h-573v-1948h-475v1948h-570v382h1618v-382z" />
    <glyph glyph-name="U" unicode="U" horiz-adv-x="2229" 
d="M1986 785q0 -160 -28 -282.5t-81 -212.5t-129.5 -150t-173.5 -96.5t-213.5 -52t-248.5 -15.5t-248.5 15.5t-214 52t-174 96.5t-129.5 150t-81 212.5t-28 282.5v1545h467v-1571q0 -104 21.5 -177t69.5 -119.5t126 -68t191 -21.5q112 0 190 21.5t126 68t69.5 119.5
t21.5 177v1571h467v-1545z" />
    <glyph glyph-name="V" unicode="V" horiz-adv-x="2149" 
d="M1436 291q-27 -84 -63 -144t-80.5 -98t-98 -55.5t-117.5 -17.5q-65 0 -119 16.5t-98 54t-79.5 97.5t-63.5 147l-668 2039h504l528 -1798l534 1798h486z" />
    <glyph glyph-name="W" unicode="W" horiz-adv-x="2965" 
d="M570 2330l315 -1779h2l279 1181q22 93 53.5 157.5t72.5 104.5t90.5 58t107.5 18t108 -18t90.5 -58t71.5 -105t53 -158l273 -1177h2l320 1776h464l-433 -2021q-19 -89 -49 -152.5t-71 -103.5t-93.5 -58.5t-116.5 -18.5q-66 0 -120 18t-97 57.5t-75 102.5t-53 153
l-285 1190l-277 -1190q-41 -175 -128.5 -253t-215.5 -78q-65 0 -117.5 18.5t-93.5 58.5t-71 103t-49 152l-433 2022h476z" />
    <glyph glyph-name="X" unicode="X" horiz-adv-x="2185" 
d="M1562 2330h511l-723 -1131l767 -1199h-545l-497 799l-483 -799h-525l758 1186l-730 1144h541l460 -752z" />
    <glyph glyph-name="Y" unicode="Y" horiz-adv-x="2024" 
d="M1247 0h-473v898l-750 1432h509l481 -966l494 966h491l-752 -1432v-898z" />
    <glyph glyph-name="Z" unicode="Z" horiz-adv-x="1890" 
d="M738 392h996v-392h-1343q-131 0 -198.5 46t-67.5 134q0 38 14 81.5t44 93.5l951 1586h-941v389h1286q134 0 199 -47.5t65 -131.5q0 -77 -59 -176z" />
    <glyph glyph-name="bracketleft" unicode="[" horiz-adv-x="1091" 
d="M665 -200h324v-344h-738v2952h740v-340h-326v-2268z" />
    <glyph glyph-name="backslash" unicode="\" horiz-adv-x="1505" 
d="M100 2412h380l945 -2680h-379z" />
    <glyph glyph-name="bracketright" unicode="]" horiz-adv-x="1091" 
d="M100 2408h740v-2952h-738v344h324v2268h-326v340z" />
    <glyph glyph-name="asciicircum" unicode="^" horiz-adv-x="1723" 
d="M1031 2330l577 -1333h-395l-351 822l-352 -822h-396l578 1333h339z" />
    <glyph glyph-name="underscore" unicode="_" horiz-adv-x="1670" 
d="M-10 -303h1690v-167h-1690v167z" />
    <glyph glyph-name="grave" unicode="`" horiz-adv-x="878" 
d="M22 2411h459l310 -535h-340z" />
    <glyph glyph-name="a" unicode="a" horiz-adv-x="1854" 
d="M828 -24q-185 0 -315 35.5t-212.5 107t-120.5 178t-38 247.5q0 118 27 213.5t86.5 166.5t153 118t226.5 68q140 23 281 31t289 14q0 77 -18.5 133t-58 93t-101.5 54.5t-149 17.5q-81 0 -164 -4t-164 -10.5t-157.5 -14.5t-143.5 -17l-36 330q70 12 151 24t170 22t184.5 16
t193.5 6q99 0 191.5 -10.5t173.5 -35.5t147.5 -67t114 -106t74 -151.5t26.5 -202.5v-753q0 -91 -3.5 -171.5t-11.5 -166.5q-155 -90 -355 -127.5t-441 -37.5zM1205 865q-50 -3 -103 -5.5t-106 -6.5t-104.5 -10.5t-97.5 -17.5q-59 -14 -100 -32.5t-66.5 -49t-37.5 -77
t-12 -116.5q0 -71 20 -116.5t58.5 -72.5t94.5 -37.5t129 -10.5q37 0 77.5 1.5t81 7t80 15t75.5 24.5q6 54 8.5 116.5t2.5 122.5v265z" />
    <glyph glyph-name="b" unicode="b" horiz-adv-x="1949" 
d="M225 2469h444v-702q80 17 169.5 27.5t170.5 10.5q205 0 354.5 -46t246.5 -152.5t143.5 -281.5t46.5 -434q0 -175 -21 -311t-65.5 -237.5t-112.5 -171.5t-161.5 -113.5t-214 -62.5t-268.5 -19q-90 0 -185.5 9.5t-188.5 29.5t-180.5 51t-162.5 75q-8 86 -11.5 166.5
t-3.5 171.5v1990zM669 610q0 -60 2.5 -122.5t8.5 -116.5q25 -12 57.5 -20.5t69 -14.5t75 -9t75.5 -3q95 0 161.5 22t110.5 60.5t69 92t37.5 116.5t15.5 133t3 143q0 81 -3 154.5t-16 136t-40 113t-75.5 86t-122 55t-179.5 19.5q-29 0 -61 -3t-65 -8t-64.5 -12t-58.5 -16
v-806z" />
    <glyph glyph-name="c" unicode="c" horiz-adv-x="1584" 
d="M1441 44q-117 -29 -260.5 -48.5t-322.5 -19.5q-149 0 -258 36t-186 99.5t-124.5 151t-74.5 191t-36.5 219t-9.5 234.5q0 146 13 269t46.5 223t91 176t145.5 127t210 77t286 26q152 0 267.5 -19.5t209.5 -48.5l-36 -326q-81 16 -161 28.5t-162 12.5q-104 0 -178.5 -11
t-126 -36.5t-82 -67t-47 -102t-22 -142t-5.5 -186.5q0 -100 3.5 -181t18 -144t43.5 -109.5t80.5 -76.5t129.5 -44.5t190 -14.5q82 0 159.5 12.5t159.5 29.5z" />
    <glyph glyph-name="d" unicode="d" horiz-adv-x="1953" 
d="M1281 2469h444v-1990q0 -91 -3.5 -171.5t-11.5 -166.5q-75 -44 -163 -75t-181 -51t-188 -29.5t-185 -9.5q-148 0 -268.5 19t-214 62.5t-161.5 113.5t-112.5 171.5t-65.5 237.5t-21 311q0 259 46.5 434t143.5 281.5t246 152.5t355 46q81 0 170.5 -10.5t169.5 -27.5v702z
M1281 1416q-27 9 -58.5 16t-64.5 12t-65 8t-61 3q-106 0 -180 -19.5t-122.5 -55t-75.5 -86t-40 -113t-15.5 -136t-2.5 -154.5q0 -73 3 -143t15.5 -133t37.5 -116.5t69 -92t110.5 -60.5t161.5 -22q37 0 75.5 3t75 9t69 14.5t57.5 20.5q6 54 8.5 116.5t2.5 122.5v806z" />
    <glyph glyph-name="e" unicode="e" horiz-adv-x="1906" 
d="M924 -24q-151 0 -266 31t-200 89t-141.5 139.5t-91 183.5t-49 221t-14.5 251q0 242 41 415t135 284t246.5 163t376.5 52q162 0 283.5 -28t208.5 -80.5t143.5 -129.5t89.5 -174.5t46 -215t13 -252.5q0 -71 -6 -143q-51 -9 -116 -18.5t-138.5 -18t-151.5 -17t-154.5 -15
t-149 -12t-133.5 -8.5l-293 -15q6 -104 36.5 -171t83.5 -106t129 -54t172 -15q181 0 342.5 15t299.5 32l37 -335q-71 -12 -153 -24t-178 -21.5t-207.5 -16t-240.5 -6.5zM896 997q43 2 96.5 6t108 8.5t105.5 10t90 10.5q2 15 3 35.5t1 35.5q0 88 -17.5 155.5t-57.5 113.5
t-105 69.5t-159 23.5q-123 0 -196 -36t-112 -100.5t-51 -153t-12 -193.5z" />
    <glyph glyph-name="f" unicode="f" horiz-adv-x="1259" 
d="M818 1781h366v-338h-366v-1443h-443v1443h-294v338h294v155q0 132 35.5 236t106.5 175t179 108.5t253 37.5q29 0 63.5 -1.5t70.5 -4t71 -6t67 -7.5l-33 -311h-137q-115 0 -174 -54t-59 -171v-157z" />
    <glyph glyph-name="g" unicode="g" horiz-adv-x="1957" 
d="M299 -276q67 -9 147 -18.5t165.5 -17t171 -12t162.5 -4.5q179 0 261 82.5t82 246.5v53q-81 -17 -170 -27.5t-170 -10.5q-203 0 -352 44.5t-247 148.5t-145.5 275.5t-47.5 425.5q0 171 22 304t67.5 232t114.5 168t163 111t213 61t264 19q90 0 185 -9.5t188 -29.5
t180.5 -51t162.5 -75q8 -86 11.5 -166.5t3.5 -171.5v-1405q0 -116 -26.5 -204t-74.5 -152t-115 -106.5t-148 -68t-174 -36t-193 -10.5q-99 0 -200.5 7t-197.5 18t-182.5 24.5t-156.5 25.5zM1000 1457q-92 0 -157 -21t-109.5 -59t-70.5 -89.5t-39.5 -112t-17.5 -128.5
t-4 -137q0 -78 3.5 -148.5t17 -131t41 -109.5t76 -83.5t121 -53t177.5 -18.5q29 0 61.5 3t65.5 8t64.5 12t58.5 16v766q0 60 -2.5 122.5t-8.5 116.5q-25 12 -58 20.5t-69.5 14.5t-75 9t-74.5 3z" />
    <glyph glyph-name="h" unicode="h" horiz-adv-x="1978" 
d="M1331 0v1084q0 63 -5 114.5t-19 91.5t-39.5 69t-66.5 48t-100 28t-140 9q-75 0 -149 -14.5t-138 -41.5v-1388h-444v2469h444v-721q88 26 186.5 41.5t209.5 15.5q160 0 274.5 -24.5t193 -68.5t125.5 -106t72 -137t33 -162t8 -180v-1127h-445z" />
    <glyph glyph-name="i" unicode="i" horiz-adv-x="915" 
d="M457 1991q-75 0 -125.5 13t-81 43t-43 78t-12.5 117t13 117t43.5 78t80.5 43t125 13q74 0 124.5 -13t81 -43t43.5 -78t13 -117t-13 -117t-43 -78t-80.5 -43t-125.5 -13zM234 1781h447v-1781h-447v1781z" />
    <glyph glyph-name="j" unicode="j" horiz-adv-x="923" 
d="M238 1781h447v-1755q0 -193 -41.5 -327.5t-129.5 -218.5t-224.5 -122t-326.5 -38q-30 0 -60 1t-60 4l36 329q76 8 141.5 21.5t114 45.5t76 89t27.5 153v1818zM461 1991q-75 0 -125 13t-80.5 43t-43 78t-12.5 117t13 117t43.5 78t80.5 43t124 13q75 0 125 -13t80.5 -43
t43.5 -78t13 -117t-12.5 -117t-43 -78t-81 -43t-125.5 -13z" />
    <glyph glyph-name="k" unicode="k" horiz-adv-x="1858" 
d="M672 1002l608 779h509l-669 -820l704 -961h-538l-614 886v-886h-442v2469h442v-1467z" />
    <glyph glyph-name="l" unicode="l" horiz-adv-x="884" 
d="M197 2469h445v-1983q0 -60 7 -111t22 -97.5t38.5 -91t56.5 -90.5l-392 -184q-43 50 -76 106t-55.5 121.5t-34 143t-11.5 170.5v2016z" />
    <glyph glyph-name="m" unicode="m" horiz-adv-x="2850" 
d="M668 0h-442v1302q0 91 3.5 171.5t11.5 166.5q74 40 162.5 70.5t185.5 51.5t199.5 32t206.5 11q148 0 253 -27t177 -75q121 46 261 74t283 28q142 0 246 -24.5t177 -68.5t118 -106t70 -136.5t34 -159.5t9 -176v-1134h-443v1094q0 87 -12.5 153t-46.5 111t-93 68t-153 23
q-26 0 -57.5 -3.5t-65 -10.5t-67.5 -18.5t-64 -26.5q14 -60 19 -124t5 -132v-1134h-443v1094q0 85 -12 151t-45 111.5t-90.5 69t-148.5 23.5q-29 0 -60 -3.5t-61.5 -10t-57.5 -15t-48 -18.5q-6 -54 -8.5 -116.5t-2.5 -122.5v-1163z" />
    <glyph glyph-name="n" unicode="n" horiz-adv-x="1967" 
d="M667 0h-442v1302q0 91 3.5 171.5t11.5 166.5q158 84 359 124.5t439 40.5q160 0 275 -23t194 -65.5t126.5 -103t73 -135t33.5 -161.5t8 -183v-1134h-442v1094q0 94 -12 161.5t-49.5 110.5t-107 63.5t-184.5 20.5q-36 0 -74.5 -3t-74.5 -9t-68.5 -15t-57.5 -21
q-6 -54 -8.5 -116.5t-2.5 -122.5v-1163z" />
    <glyph glyph-name="o" unicode="o" horiz-adv-x="1926" 
d="M962 -24q-220 0 -372 49.5t-246.5 158.5t-137 283t-42.5 424q0 249 42.5 423t137 283t246.5 158.5t372 49.5t372.5 -50.5t247 -160.5t137 -283.5t42.5 -419.5q0 -247 -42.5 -420.5t-137 -283.5t-247 -160.5t-372.5 -50.5zM962 334q105 0 174 26t109 90t56 171.5t16 269.5
t-16 269t-56 171t-109 90.5t-174 26.5t-173 -24.5t-108 -87t-55.5 -170.5t-15.5 -275q0 -168 15.5 -276t55.5 -170.5t108 -86.5t173 -24z" />
    <glyph glyph-name="p" unicode="p" horiz-adv-x="1951" 
d="M670 -656h-443v1958q0 91 3.5 171.5t11.5 166.5q75 44 162.5 75t180.5 51t188 29.5t186 9.5q222 0 381.5 -44.5t262 -150.5t151 -282t48.5 -438q0 -259 -46.5 -434t-144 -281.5t-247 -152.5t-354.5 -46q-81 0 -170 10.5t-170 27.5v-670zM670 365q27 -9 58.5 -16t64.5 -12
t65.5 -8t61.5 -3q106 0 179.5 19.5t122 55t75.5 86t40 113t16 136t3 154.5q0 73 -3 143t-15.5 133t-37.5 116.5t-69 92t-110.5 60.5t-161.5 22q-37 0 -75.5 -3t-75 -9t-69.5 -14.5t-58 -20.5q-6 -54 -8.5 -116.5t-2.5 -122.5v-806z" />
    <glyph glyph-name="q" unicode="q" horiz-adv-x="1952" 
d="M1725 -656h-444v670q-80 -17 -169.5 -27.5t-170.5 -10.5q-206 0 -355 46t-246 152.5t-143.5 281.5t-46.5 434q0 262 48 438t150.5 282t262 150.5t382.5 44.5q90 0 185 -9.5t188 -29.5t181 -51t163 -75q8 -86 11.5 -166.5t3.5 -171.5v-1958zM1281 1171q0 60 -2.5 122.5
t-8.5 116.5q-25 12 -57.5 20.5t-69 14.5t-75 9t-75.5 3q-95 0 -161.5 -22t-110.5 -60.5t-69 -92t-37.5 -116.5t-15.5 -133t-3 -143q0 -81 2.5 -154.5t15.5 -136t40 -113t75.5 -86t122 -55t180.5 -19.5q29 0 61 3t65 8t64.5 12t58.5 16v806z" />
    <glyph glyph-name="r" unicode="r" horiz-adv-x="1202" 
d="M223 0v1302q0 91 3.5 171.5t11.5 166.5q75 44 162.5 75t180.5 51t188 29.5t185 9.5q95 0 181 -9l-36 -356q-28 4 -61 5.5t-67 1.5q-39 0 -80.5 -3.5t-80.5 -10.5t-74 -17.5t-61 -23.5q-6 -54 -8.5 -116.5t-2.5 -122.5v-1153h-441z" />
    <glyph glyph-name="s" unicode="s" horiz-adv-x="1633" 
d="M970 1459q-53 0 -115 -2.5t-115.5 -17t-89 -45.5t-35.5 -88q0 -59 31 -95.5t79.5 -60.5t107 -41t112.5 -35q74 -25 143.5 -48.5t130 -52.5t110.5 -67t86 -91.5t55.5 -127t19.5 -172.5q0 -106 -24.5 -186.5t-70 -140.5t-109 -100.5t-141.5 -65.5t-168.5 -35.5
t-188.5 -10.5q-76 0 -159 5t-165.5 15t-162 24.5t-148.5 32.5l42 330q50 -9 112.5 -19t128 -17.5t129 -12.5t115.5 -5q34 0 73.5 0.5t80 5t78 14t66 28.5t46 49t17.5 74q0 63 -27 100.5t-71 61t-99 37.5t-110 31q-70 21 -138.5 44t-130.5 53t-115.5 69.5t-92.5 94.5
t-61 127.5t-22 168.5q0 151 49.5 250.5t135.5 159t202 84t250 24.5q95 0 178 -4.5t160.5 -13.5t154.5 -23t160 -33l-42 -324q-106 21 -218.5 36.5t-233.5 15.5z" />
    <glyph glyph-name="t" unicode="t" horiz-adv-x="1300" 
d="M813 2284v-503h358v-337h-358v-921q0 -111 49.5 -158.5t161.5 -47.5q73 0 150 6l34 -316q-72 -13 -152.5 -22t-152.5 -9q-141 0 -241.5 31t-165.5 93.5t-95.5 156.5t-30.5 221v966h-291v337h291v431z" />
    <glyph glyph-name="u" unicode="u" horiz-adv-x="1958" 
d="M215 1781h443v-1094q0 -94 12 -161.5t48.5 -110.5t105.5 -63.5t183 -20.5q36 0 73.5 3t73 9t68 15t57.5 21q6 54 8.5 116.5t2.5 122.5v1163h441v-1302q0 -91 -3.5 -171.5t-11.5 -166.5q-157 -84 -357.5 -124.5t-436.5 -40.5q-160 0 -274.5 23t-193 65.5t-125.5 103
t-72.5 135t-33.5 161.5t-8 183v1134z" />
    <glyph glyph-name="v" unicode="v" horiz-adv-x="1900" 
d="M1284 248q-50 -141 -133.5 -206.5t-201.5 -65.5q-119 0 -201.5 65.5t-132.5 206.5l-546 1533h468l422 -1334l422 1334h451z" />
    <glyph glyph-name="w" unicode="w" horiz-adv-x="2709" 
d="M542 1781l276 -1326l251 901q42 149 113.5 218t179.5 69t179.5 -69.5t113.5 -217.5l250 -897l277 1322h437l-388 -1511q-38 -151 -115.5 -222.5t-193.5 -71.5t-195.5 71.5t-124.5 221.5l-249 822l-242 -821q-45 -150 -125 -222t-197 -72q-118 0 -195 70.5t-117 225.5
l-387 1509h452z" />
    <glyph glyph-name="x" unicode="x" horiz-adv-x="1954" 
d="M1345 1781h477l-599 -853l648 -928h-519l-394 589l-388 -589h-488l645 919l-600 862h509l356 -533z" />
    <glyph glyph-name="y" unicode="y" horiz-adv-x="1835" 
d="M1316 1781h452l-829 -2437h-452l280 781l-716 1656h471l446 -1099z" />
    <glyph glyph-name="z" unicode="z" horiz-adv-x="1807" 
d="M774 361h820v-361h-1266q-87 0 -135 39.5t-48 106.5q0 35 13.5 72t45.5 82l820 1135h-810v346h1250q85 0 133.5 -39.5t48.5 -106.5q0 -32 -14 -70.5t-44 -80.5z" />
    <glyph glyph-name="braceleft" unicode="{" horiz-adv-x="1100" 
d="M748 185q0 -77 6 -145t32.5 -121.5t81 -88.5t152.5 -47l-37 -307q-107 8 -195.5 25t-159.5 48t-124 79t-88.5 119t-53 167t-17.5 224q0 172 -9.5 291t-35.5 194.5t-73 112.5t-123 45v305q75 7 122.5 44t73.5 113t35.5 195.5t9.5 290.5q0 191 39.5 313.5t119 195.5
t199.5 106t280 46l37 -306q-98 -12 -152.5 -47t-81 -88.5t-32.5 -121.5t-6 -146v-167q0 -53 -1 -111t-6.5 -115t-18 -111.5t-35.5 -101.5t-59.5 -84t-89.5 -59q74 -36 116 -102.5t63 -146.5t26 -166.5t5 -164.5v-167z" />
    <glyph glyph-name="bar" unicode="|" horiz-adv-x="864" 
d="M250 2469h365v-3125h-365v3125z" />
    <glyph glyph-name="braceright" unicode="}" horiz-adv-x="1101" 
d="M997 781q-76 -8 -123 -45t-73.5 -112.5t-35.5 -194.5t-9 -291q0 -128 -17.5 -224t-53 -167t-88.5 -119t-124 -79t-160 -48t-195 -25l-38 307q97 12 152 47t82 88.5t33 121.5t6 145v167q0 78 5 164.5t26 166.5t63 146.5t116 102.5q-54 22 -90 59t-59.5 84t-36 101.5
t-18 111.5t-6 115t-0.5 111v167q0 78 -6 146t-33 121.5t-82 88.5t-152 47l38 306q160 -13 279.5 -46t199 -106t119.5 -195.5t40 -313.5q0 -171 9.5 -290.5t35.5 -195.5t73.5 -113t122.5 -44v-305z" />
    <glyph glyph-name="asciitilde" unicode="~" horiz-adv-x="2050" 
d="M1887 1385q-15 -167 -58.5 -291.5t-109 -206.5t-148 -122.5t-173.5 -40.5q-100 0 -174 21t-131.5 52.5t-102.5 68.5t-87 68.5t-85.5 52.5t-97.5 21q-74 0 -121 -66.5t-71 -204.5h-365q15 167 58.5 291t109 206t147.5 122.5t174 40.5q100 0 173.5 -21t131 -52.5t103 -68.5
t87.5 -68.5t85.5 -52.5t97.5 -21q73 0 120 66.5t72 205.5h365z" />
    <glyph glyph-name="uni00A0" unicode="&#xa0;" horiz-adv-x="850" 
 />
    <glyph glyph-name="exclamdown" unicode="&#xa1;" horiz-adv-x="956" 
d="M478 1281q-74 0 -124.5 13t-81 43t-43.5 78t-13 117t13 117t43 78t80.5 43t125.5 13t125.5 -13t81 -43t43 -78t12.5 -117t-13 -117t-43.5 -78t-80.5 -43t-125 -13zM287 1077h383l70 -1648h-523z" />
    <glyph glyph-name="cent" unicode="&#xa2;" horiz-adv-x="1474" 
d="M1373 309q-82 -20 -178 -36t-208 -24v-306h-295v307q-119 14 -205.5 56t-148 106t-100 146.5t-60 177.5t-29.5 199t-8 211q0 185 23 333t84 256t168 175.5t276 92.5v314h295v-301q118 -5 211.5 -23t171.5 -42l-34 -316q-79 15 -156 28t-156 13q-101 0 -174 -11
t-122.5 -35.5t-79.5 -64.5t-46.5 -99t-21.5 -138.5t-5 -181.5q0 -97 3.5 -175.5t17.5 -140t42.5 -106t78.5 -74t125.5 -43.5t184.5 -14q79 0 154 12.5t155 29.5z" />
    <glyph glyph-name="sterling" unicode="&#xa3;" horiz-adv-x="1985" 
d="M132 975v336h275q-9 72 -14.5 153.5t-5.5 175.5q0 129 29.5 226.5t83 169t129 119.5t166.5 76.5t195 40.5t216 12q123 0 213.5 -21t163.5 -58.5t135 -91t130 -117.5l-231 -274q-46 41 -90.5 74t-91.5 56.5t-100 36.5t-117 13q-109 0 -180.5 -20t-114 -61.5t-59.5 -105
t-17 -150.5q0 -62 4.5 -124.5t12.5 -129.5h491v-336h-457q2 -39 3.5 -79t1.5 -82q0 -45 -8 -100.5t-20.5 -112.5t-29.5 -113t-35 -102h396q73 0 149 3t149 8.5t141.5 13.5t128.5 17l39 -358q-59 -15 -144 -28t-186.5 -22t-215 -14.5t-230.5 -5.5h-522q-61 0 -104 14.5
t-70.5 39t-40.5 57t-13 68.5q0 35 13.5 71t33.5 77t43 88.5t43 103.5t33.5 122.5t13.5 146.5q0 48 -3.5 94t-9.5 93h-322z" />
    <glyph glyph-name="currency" unicode="&#xa4;" horiz-adv-x="2126" 
d="M1976 467l-257 -256l-245 248q-92 -56 -196.5 -86.5t-215.5 -30.5q-117 0 -221 30.5t-194 85.5l-245 -248l-253 257l247 240q-57 90 -87.5 192.5t-30.5 214.5q0 116 31 220.5t88 195.5l-248 244l253 253l248 -249q91 56 195 86.5t217 30.5q115 0 218.5 -30t193.5 -84
l245 245l257 -252l-248 -240q60 -92 92 -198.5t32 -221.5t-32.5 -218t-90.5 -191zM1062 698q82 0 157 32t132.5 88t92 132t34.5 165q0 87 -32 164t-88 134.5t-132 91.5t-164 34q-83 0 -158 -32.5t-131.5 -89.5t-89.5 -134.5t-33 -167.5q0 -84 31.5 -159.5t87 -133t130.5 -91
t163 -33.5z" />
    <glyph glyph-name="yen" unicode="&#xa5;" horiz-adv-x="1903" 
d="M953 1338l413 922h447l-467 -1019h243v-275h-369l-43 -94v-121h412v-271h-412v-480h-455v480h-408v271h408v122l-43 93h-365v275h240l-464 1019h465z" />
    <glyph glyph-name="brokenbar" unicode="&#xa6;" horiz-adv-x="799" 
d="M217 605h365v-1076h-365v1076zM217 2284h365v-1075h-365v1075z" />
    <glyph glyph-name="section" unicode="&#xa7;" horiz-adv-x="1862" 
d="M1105 1499q71 -29 145.5 -61.5t144 -72t130.5 -88t106.5 -110t72 -137t26.5 -169.5q0 -73 -20 -135.5t-55 -116t-83.5 -98t-105.5 -81.5q77 -78 109.5 -164t32.5 -178q0 -111 -32.5 -196.5t-89 -149t-132.5 -107t-162.5 -70t-180 -38t-184.5 -11.5q-95 0 -178.5 4
t-162 13t-156 23t-161.5 34l43 333q135 -26 273.5 -41t286.5 -15q36 0 79 0.5t86.5 6t83.5 17.5t71.5 34t50 56.5t18.5 85.5q0 55 -31.5 97.5t-84.5 77.5t-123 65.5t-146 61.5q-75 30 -151.5 62.5t-147.5 73t-133.5 90t-109 113t-73 144t-26.5 181.5q0 74 19.5 139t54 120
t81.5 101t102 83q-57 65 -88.5 140t-31.5 166q0 125 47 230t136 181t218 118.5t294 42.5q96 0 179 -4.5t161.5 -13.5t156.5 -23.5t162 -33.5l-42 -325q-134 26 -276 41t-286 15q-149 0 -229.5 -49.5t-80.5 -149.5q0 -56 33.5 -100t89 -81.5t126 -69t144.5 -61.5zM796 775
q46 -22 96 -40t100 -35.5t99.5 -36t96.5 -41.5q61 36 97.5 84.5t36.5 118.5q0 45 -17 84.5t-53.5 76.5t-94 73t-137.5 73q-43 20 -88 37t-90.5 34t-91 35t-89.5 41q-57 -32 -94 -85t-37 -125q0 -41 13.5 -79t45 -74t82.5 -71t125 -70z" />
    <glyph glyph-name="dieresis" unicode="&#xa8;" horiz-adv-x="1449" 
d="M388 1901q-47 0 -87.5 17t-70.5 46t-47.5 69t-17.5 87q0 46 17.5 86.5t47.5 70t70.5 46.5t87.5 17q46 0 85.5 -17t68 -46.5t45 -70t16.5 -86.5q0 -47 -16.5 -87t-45 -69t-68 -46t-85.5 -17zM1068 1901q-47 0 -87 17t-70 46t-47 69t-17 87q0 46 17 86.5t47 70t70 46.5
t87 17q46 0 86 -17t68.5 -46.5t45 -70t16.5 -86.5q0 -47 -16.5 -87t-45 -69t-68.5 -46t-86 -17z" />
    <glyph glyph-name="copyright" unicode="&#xa9;" horiz-adv-x="2659" 
d="M1909 969q-11 -116 -60 -209.5t-125.5 -158.5t-175 -100t-206.5 -35q-153 0 -267 54t-190 148.5t-113.5 223t-37.5 277.5q0 88 17.5 174t51.5 163.5t85 143t119 113t151.5 74.5t183.5 27q92 0 186 -27.5t173.5 -85t135.5 -145.5t72 -208h-276q-9 57 -34.5 100.5t-63 73.5
t-87 45t-106.5 15q-70 0 -127.5 -31.5t-99 -91t-64.5 -145.5t-23 -195q0 -108 21.5 -193.5t62 -144t98.5 -89.5t132 -31q54 0 102.5 17.5t86.5 51t64.5 81.5t37.5 108h276zM1330 2354q164 0 316 -42t284 -119t240.5 -185t186 -239.5t120 -283.5t42.5 -316t-42.5 -316.5
t-120 -285t-186 -241.5t-240.5 -187t-284 -120.5t-316 -42.5t-316 42.5t-284 120.5t-240.5 187t-186 241.5t-120 284.5t-42.5 317q0 164 42.5 316t120 283.5t186 239.5t240.5 185t284 119t316 42zM1330 2105q-130 0 -249.5 -32.5t-222.5 -92.5t-187 -145t-143.5 -189
t-92 -224.5t-32.5 -252.5q0 -134 32.5 -255.5t92 -226.5t143.5 -190t187 -145.5t222 -93t250 -32.5q130 0 249.5 32.5t222.5 93t187 145.5t143.5 190t92 226.5t32.5 255.5q0 132 -32.5 252.5t-92 224.5t-143.5 189t-187 145t-222.5 92.5t-249.5 32.5z" />
    <glyph glyph-name="ordfeminine" unicode="&#xaa;" horiz-adv-x="1391" 
d="M636 1043q-128 0 -218 24.5t-147 73t-83.5 121.5t-26.5 170q0 79 20 144t61.5 114t106 81.5t153.5 47.5q93 15 191 20t197 9q0 108 -52 158t-169 50q-55 0 -112.5 -3t-113.5 -7.5t-109 -10t-100 -11.5l-24 224q97 17 221.5 32t260.5 15q103 0 194 -17t159.5 -60.5
t108.5 -120t40 -194.5v-515q0 -63 -2.5 -117.5t-7.5 -112.5q-107 -63 -244 -89t-304 -26zM890 1653q-81 -4 -150.5 -8.5t-127.5 -18.5q-39 -9 -66.5 -22t-45 -34t-25.5 -53.5t-8 -80.5q0 -49 13.5 -80.5t39.5 -50t64 -26t87 -7.5q50 0 106.5 6t107.5 27q2 38 3.5 81t1.5 84
v183z" />
    <glyph glyph-name="guillemotleft" unicode="&#xab;" horiz-adv-x="1881" 
d="M988 172h-414l-489 690l489 690h414l-444 -690zM1754 172h-414l-489 690l489 690h414l-443 -690z" />
    <glyph glyph-name="logicalnot" unicode="&#xac;" horiz-adv-x="2080" 
d="M1833 292h-398v669h-1257v379h1655v-1048z" />
    <glyph glyph-name="uni00AD" unicode="&#xad;" horiz-adv-x="1298" 
d="M209 1064h880v-356h-880v356z" />
    <glyph glyph-name="registered" unicode="&#xae;" horiz-adv-x="1697" 
d="M761 1253h-182v790h287q84 0 143.5 -16t97 -46.5t55 -75t17.5 -101.5q0 -78 -35.5 -134t-107.5 -80l165 -337h-204l-147 308h-89v-308zM126 1633q0 150 56.5 281.5t155 229t230 154t281.5 56.5q100 0 192 -25.5t172.5 -72.5t146.5 -112.5t112.5 -145.5t72.5 -172.5
t26 -192.5t-26 -192.5t-72.5 -173t-112.5 -147t-146.5 -113.5t-172.5 -73t-192 -26t-192.5 26t-173 73t-146 113.5t-112.5 147t-73 173t-26 192.5zM1391 1633q0 116 -42 216t-115 174t-172 116t-213 42t-213.5 -42t-172.5 -116t-115 -174t-42 -216q0 -117 42 -218
t115 -175.5t172.5 -116.5t213.5 -42t213 42t172 116.5t115 175.5t42 218zM761 1891v-178h84q83 0 119 22.5t36 68.5q0 48 -37.5 67.5t-120.5 19.5h-81z" />
    <glyph glyph-name="macron" unicode="&#xaf;" horiz-adv-x="1438" 
d="M208 2252h1021v-277h-1021v277z" />
    <glyph glyph-name="degree" unicode="&#xb0;" horiz-adv-x="1306" 
d="M652 1298q-109 0 -205 41.5t-168 113.5t-113.5 168t-41.5 205t41.5 205t113.5 168t168 113.5t205 41.5t205.5 -41.5t168.5 -113.5t113.5 -168t41.5 -205t-41.5 -205t-113.5 -168t-168.5 -113.5t-205.5 -41.5zM652 1551q58 0 108 21.5t87.5 58.5t59 87t21.5 108
q0 57 -21.5 107.5t-59 87.5t-87.5 58.5t-108 21.5q-57 0 -107.5 -21.5t-87.5 -58.5t-58.5 -87.5t-21.5 -107.5q0 -58 21.5 -108t58.5 -87t87.5 -58.5t107.5 -21.5z" />
    <glyph glyph-name="plusminus" unicode="&#xb1;" horiz-adv-x="1969" 
d="M788 1959h395v-521h629v-376h-629v-523h-395v523h-631v376h631v521zM157 376h1655v-378h-1655v378z" />
    <glyph glyph-name="uni00B2" unicode="&#xb2;" horiz-adv-x="1176" 
d="M108 2680q103 20 220 34.5t240 14.5q105 0 196 -16t157.5 -55.5t105 -108t38.5 -173.5q0 -94 -25.5 -170.5t-76 -139t-126 -112.5t-174.5 -89q-63 -25 -103.5 -50.5t-65.5 -54.5t-37 -64t-19 -79h626v-259h-980q20 109 37 196.5t38.5 157.5t50 125t70.5 100t100 82
t138 71q59 25 102.5 49t72 51.5t42.5 61t14 77.5q0 46 -14.5 74.5t-48.5 45t-91 22.5t-142 6q-30 0 -69 -2.5t-81 -7t-84.5 -10.5t-81.5 -12z" />
    <glyph glyph-name="uni00B3" unicode="&#xb3;" horiz-adv-x="1155" 
d="M524 2731q100 0 192.5 -13.5t163 -52t113 -108.5t42.5 -183q0 -96 -42 -172.5t-130 -126.5q96 -42 144.5 -111.5t48.5 -179.5q0 -126 -37.5 -210t-107 -135t-169.5 -72t-225 -21q-119 0 -224 14.5t-211 34.5l33 236q45 -6 91.5 -12t92 -10.5t88.5 -7t81 -2.5
q67 0 116.5 6.5t82 25.5t48.5 53t16 90q0 74 -31 112.5t-93 46.5q-29 4 -58.5 6.5t-62 4t-70.5 2.5t-85 1h-43v224q91 2 169.5 9t148.5 17q60 9 85.5 46.5t25.5 101.5q0 47 -16 74.5t-45 41.5t-68.5 18t-85.5 4q-87 0 -182 -10t-194 -23l-31 233q96 18 204.5 33t224.5 15z
" />
    <glyph glyph-name="acute" unicode="&#xb4;" horiz-adv-x="878" 
d="M397 2411h460l-430 -535h-340z" />
    <glyph glyph-name="mu" unicode="&#xb5;" horiz-adv-x="2124" 
d="M271 1781h410v-1075q0 -81 20 -149.5t58.5 -118t95 -77t130.5 -27.5q108 0 182 49.5t119.5 138t65.5 212t20 272.5v775h412v-1091q0 -81 2.5 -150t17 -123t46.5 -92t91 -57v-292q-114 0 -197 25t-142 67t-95.5 96.5t-57.5 113.5q-88 -158 -203.5 -230t-263.5 -72
q-88 0 -165 30.5t-137 90.5v-753h-409v2437z" />
    <glyph glyph-name="paragraph" unicode="&#xb6;" horiz-adv-x="2156" 
d="M1208 -513h-335v1439q-114 4 -216.5 31t-189 72.5t-155.5 108.5t-117 138.5t-74 161.5t-26 179q0 180 61.5 313.5t176.5 222.5t278.5 133t366.5 44h919v-2843h-333v2554h-356v-2554z" />
    <glyph glyph-name="periodcentered" unicode="&#xb7;" horiz-adv-x="929" 
d="M464 699q-77 0 -127.5 12.5t-80.5 42.5t-42 79t-12 122t12.5 122t43 79t81 42.5t125.5 12.5t125.5 -12.5t81 -42.5t43.5 -79t13 -122t-12.5 -122t-42.5 -79t-81 -42.5t-127 -12.5z" />
    <glyph glyph-name="cedilla" unicode="&#xb8;" horiz-adv-x="732" 
d="M285 0h243l-120 -188q48 -5 94.5 -23t82.5 -48.5t58 -72.5t22 -95q0 -79 -33 -134.5t-87.5 -90t-125 -50t-146.5 -15.5q-72 0 -147.5 20t-134.5 55l64 171q62 -31 117 -44t97 -13q21 0 42.5 4.5t38 15t27 27.5t10.5 43q0 25 -14.5 44.5t-38.5 33.5t-54.5 23.5t-62 15
t-62.5 8t-55 2.5z" />
    <glyph glyph-name="uni00B9" unicode="&#xb9;" horiz-adv-x="808" 
d="M339 2415q-57 -13 -135.5 -25.5t-156.5 -21.5l-14 241q130 19 221.5 49t155.5 59h239v-1356h-310v1054z" />
    <glyph glyph-name="ordmasculine" unicode="&#xba;" horiz-adv-x="1423" 
d="M710 1043q-152 0 -256.5 34t-170 108.5t-94.5 194t-29 290.5q0 170 29 289t94.5 193.5t170 108.5t256.5 34t257.5 -34.5t171 -109.5t94.5 -194t29 -287q0 -169 -29 -288t-94.5 -194.5t-171 -110t-257.5 -34.5zM710 1286q72 0 118.5 18t73.5 62t37.5 118t10.5 186
q0 111 -10.5 184.5t-37.5 117.5t-73.5 62t-118.5 18q-71 0 -117 -17t-73 -60t-37.5 -117t-10.5 -188q0 -116 10.5 -190t37.5 -117.5t73 -60t117 -16.5z" />
    <glyph glyph-name="guillemotright" unicode="&#xbb;" horiz-adv-x="1881" 
d="M542 172h-414l443 690l-443 690h414l488 -690zM1308 172h-415l445 690l-445 690h415l488 -690z" />
    <glyph glyph-name="onequarter" unicode="&#xbc;" horiz-adv-x="2536" 
d="M1950 299h-425q-58 0 -96 11t-60.5 31.5t-32 49.5t-9.5 64q0 15 3.5 34.5t14 45.5t30 59t52.5 75l444 573q30 39 57.5 64t54.5 39.5t55 20t60 5.5q33 0 62 -10.5t50.5 -32t34 -53.5t12.5 -75v-664h163v-237h-163v-299h-307v299zM704 2328v-1357h-310v1054
q-28 -6 -62.5 -12.5t-72.5 -12.5t-78 -11.5t-79 -9.5l-14 240q130 20 221.5 49.5t155.5 59.5h239zM693 -48h-307l1368 2426h307zM1951 536v406l-303 -406h303z" />
    <glyph glyph-name="onehalf" unicode="&#xbd;" horiz-adv-x="2821" 
d="M1719 1322q103 20 220 34.5t240 14.5q105 0 195.5 -15.5t157.5 -55.5t105 -108.5t38 -173.5q0 -94 -25.5 -170.5t-76 -139t-125.5 -112.5t-175 -89q-63 -25 -103 -50t-65 -54.5t-37 -64t-19 -79.5h626v-259h-979q19 109 36.5 196.5t39 157t50 125t70 100t99.5 82
t139 71.5q59 25 102 49t71.5 51.5t42.5 61t14 77.5q0 46 -14.5 74.5t-49 45t-91 22.5t-141.5 6q-30 0 -69 -2.5t-81 -7t-84.5 -10t-81.5 -12.5zM93 2219q130 20 221.5 49.5t155.5 59.5h239v-1357h-310v1054q-57 -13 -135.5 -25.5t-156.5 -20.5zM2066 2378l-1368 -2426h-307
l1367 2426h308z" />
    <glyph glyph-name="threequarters" unicode="&#xbe;" horiz-adv-x="2768" 
d="M2185 299h-426q-57 0 -95.5 11t-61 31.5t-32 49.5t-9.5 64q0 15 3.5 34.5t14 45.5t30 59t52.5 75l445 573q30 39 57 64t54 39.5t55 20t60 5.5q33 0 62 -10.5t50.5 -32t34 -53.5t12.5 -75v-664h163v-237h-163v-299h-306v299zM567 2342q100 0 193 -13.5t163.5 -52.5
t113 -109t42.5 -183q0 -95 -42.5 -171.5t-129.5 -126.5q95 -43 143.5 -112t48.5 -179q0 -126 -37 -210.5t-106.5 -135t-169.5 -71.5t-225 -21q-119 0 -224.5 14t-211.5 34l33 237q45 -6 91.5 -12t92 -10.5t88.5 -7.5t81 -3q67 0 117 6.5t82 26t48 53.5t16 90q0 74 -31 112.5
t-92 46.5q-29 4 -58.5 6.5t-62 4t-70.5 2.5t-85 1h-43v224q91 2 169.5 8.5t148.5 17.5q60 9 85 46.5t25 101.5q0 46 -16 73.5t-44.5 41.5t-68 18t-85.5 4q-87 0 -182.5 -9.5t-194.5 -22.5l-31 232q97 19 205.5 34t223.5 15zM929 -48h-307l1367 2426h308zM2186 536v406
l-304 -406h304z" />
    <glyph glyph-name="questiondown" unicode="&#xbf;" horiz-adv-x="1769" 
d="M1232 1077l8 -219q0 -7 0.5 -18t1 -23t1 -22.5t0.5 -17.5q0 -109 -27.5 -173.5t-73 -100.5t-103 -52t-118 -26.5t-118 -24t-103 -45t-73 -90t-27.5 -158.5q0 -88 20 -147t70.5 -94.5t135 -50.5t213.5 -15q162 0 304 14.5t253 36.5l79 -367q-72 -17 -154.5 -31.5t-171 -25
t-180.5 -16.5t-184 -6q-130 0 -245 9.5t-212 36.5t-173.5 75.5t-130 126.5t-82 190t-28.5 266q0 120 20 208.5t54 152t80 106t97 70.5t105.5 45t106.5 30t98.5 25t81.5 30t56 45.5t23 71.5l7 184h389zM775 1532q0 69 13 117t43 78t80.5 43t125.5 13t125.5 -13t81 -43t43 -78
t12.5 -117t-13 -117t-43.5 -78t-80.5 -43t-125 -13q-74 0 -124.5 13t-81 43t-43.5 78t-13 117z" />
    <glyph glyph-name="Agrave" unicode="&#xc0;" horiz-adv-x="2238" 
d="M51 0l693 2029q58 171 153 248t230 77q130 0 226.5 -79.5t152.5 -245.5l682 -2029h-502l-178 577h-796l-174 -577h-487zM490 2993h492l332 -433h-363zM1397 940l-290 942l-285 -942h575z" />
    <glyph glyph-name="Aacute" unicode="&#xc1;" horiz-adv-x="2239" 
d="M52 0l692 2029q58 171 153.5 248t229.5 77q130 0 227 -79.5t153 -245.5l682 -2029h-502l-178 577h-796l-174 -577h-487zM1271 2973h492l-460 -433h-363zM1397 940l-290 942l-285 -942h575z" />
    <glyph glyph-name="Acircumflex" unicode="&#xc2;" horiz-adv-x="2239" 
d="M52 0l692 2029q58 171 153.5 248t229.5 77q130 0 227 -79.5t153 -245.5l682 -2029h-502l-178 577h-796l-174 -577h-487zM1254 2974l422 -435h-351l-203 231l-209 -231h-346l414 435h273zM1397 940l-290 942l-285 -942h575z" />
    <glyph glyph-name="Atilde" unicode="&#xc3;" horiz-adv-x="2239" 
d="M1598 2957q-8 -104 -36 -180.5t-68.5 -127.5t-90 -76t-100.5 -25t-89 13t-67 32.5t-51.5 42.5t-42 42.5t-38.5 32.5t-40 13q-38 0 -62.5 -39.5t-38.5 -128.5h-232q8 103 36 180t68.5 128t90 76.5t100.5 25.5t89 -13t67.5 -32.5t51.5 -42.5t41.5 -42.5t38 -32.5t40.5 -13
q38 0 62.5 39.5t38.5 127.5h232zM744 2029q58 171 153.5 248t229.5 77q130 0 227 -79.5t153 -245.5l682 -2029h-502l-178 577h-796l-174 -577h-487zM1107 1882l-285 -942h575z" />
    <glyph glyph-name="Adieresis" unicode="&#xc4;" horiz-adv-x="2239" 
d="M51 0l693 2029q58 171 153.5 248t229.5 77q130 0 227 -79.5t153 -245.5l682 -2029h-503l-178 577h-795l-174 -577h-488zM784 2532q-47 0 -87.5 17t-70.5 46t-47.5 69t-17.5 87q0 46 17.5 86.5t47.5 70t70.5 46.5t87.5 17q46 0 86 -17t68.5 -46.5t45 -70t16.5 -86.5
q0 -47 -16.5 -87t-45 -69t-68.5 -46t-86 -17zM1464 2532q-47 0 -87 17t-70 46t-47 69t-17 87q0 46 17 86.5t47 70t70 46.5t87 17q46 0 86 -17t69 -46.5t45.5 -70t16.5 -86.5q0 -47 -16.5 -87t-45.5 -69t-69 -46t-86 -17zM1397 940l-290 942l-285 -942h575z" />
    <glyph glyph-name="Aring" unicode="&#xc5;" horiz-adv-x="2239" 
d="M52 0l692 2029q58 171 153.5 248t229.5 77q130 0 227 -79.5t153 -245.5l682 -2029h-502l-178 577h-796l-174 -577h-487zM1121 2508q-72 0 -135.5 27.5t-111 74.5t-75 110.5t-27.5 135.5t27.5 136t75 111t111 74.5t135.5 27.5t135.5 -27.5t111 -74.5t75 -111t27.5 -136
t-27.5 -135.5t-75 -110.5t-111 -74.5t-135.5 -27.5zM1121 2685q36 0 67 13.5t54.5 36.5t37 54t13.5 67t-13.5 67.5t-37 55t-54.5 37t-67 13.5t-67 -13.5t-54.5 -37t-37 -55t-13.5 -67.5t13.5 -67t37 -54t54.5 -36.5t67 -13.5zM1397 940l-290 942l-285 -942h575z" />
    <glyph glyph-name="AE" unicode="&#xc6;" horiz-adv-x="3048" 
d="M51 0l690 2009q37 108 94 175t130.5 105t161.5 51.5t187 13.5q97 0 186.5 -22.5t159.5 -68.5q54 25 117 40t132 22t143 9t150 2q64 0 148 -1.5t172 -4t170.5 -5.5t142.5 -6v-367h-643q-105 0 -169 -13t-99 -48t-47 -96.5t-12 -157.5v-264h927v-376h-927v-302
q0 -97 12 -158.5t47 -97t99 -48.5t169 -13h643v-366q-41 -2 -93 -4t-109 -4t-117 -4t-117 -3t-107.5 -2t-89.5 -1q-105 0 -206 4t-191 22t-165.5 54t-130.5 99t-85.5 158t-30.5 232v14h-677l-177 -577h-488zM827 940h566v841q0 98 -32.5 140t-98.5 42t-106 -40.5t-65 -122.5
z" />
    <glyph glyph-name="Ccedilla" unicode="&#xc7;" horiz-adv-x="1873" 
d="M1716 1918q-115 19 -235 29.5t-245 10.5q-140 0 -236.5 -27t-160 -77t-98.5 -121t-51.5 -159t-20 -191.5t-3.5 -217.5q0 -115 3 -218.5t19.5 -191.5t51.5 -159t98 -120.5t160 -76.5t238 -27q124 0 245 10.5t234 29.5l42 -366q-99 -27 -229.5 -45t-284.5 -23l-96 -150
q48 -5 94.5 -23t82.5 -48.5t58 -72.5t22 -94q0 -80 -32.5 -135t-87 -90t-125.5 -50.5t-147 -15.5q-72 0 -147.5 20t-134.5 55l64 171q62 -31 117.5 -44t96.5 -13q22 0 43 4.5t37.5 15t27 27.5t10.5 43q0 25 -14.5 44.5t-38.5 34t-54.5 24t-62 15t-62.5 8t-55 2.5l164 275
q-163 11 -287.5 49.5t-215.5 105.5t-151.5 164t-97 224.5t-52 287.5t-15.5 353q0 207 18 375.5t60.5 300.5t114 229t178.5 160t254 93.5t340 30.5q184 0 339 -20t269 -51z" />
    <glyph glyph-name="Egrave" unicode="&#xc8;" horiz-adv-x="1896" 
d="M1683 1952h-643q-105 0 -169 -13t-99 -48t-47 -96.5t-12 -157.5v-264h927v-376h-927v-302q0 -97 12 -158.5t47 -97t99 -48.5t169 -13h643v-366q-41 -2 -93 -4t-109 -4t-117 -4t-117 -3t-107.5 -2t-89.5 -1q-105 0 -206 4t-191 22t-165.5 54t-130.5 99t-85.5 158
t-30.5 232v1205q0 136 30.5 231.5t85.5 158.5t130.5 98.5t165.5 53.5t191 22t206 4q63 0 147.5 -1.5t172 -4t170.5 -5.5t143 -6v-367zM521 2955h491l332 -433h-363z" />
    <glyph glyph-name="Eacute" unicode="&#xc9;" horiz-adv-x="1896" 
d="M1683 1952h-643q-105 0 -169 -13t-99 -48t-47 -96.5t-12 -157.5v-264h927v-376h-927v-302q0 -97 12 -158.5t47 -97t99 -48.5t169 -13h643v-366q-41 -2 -93 -4t-109 -4t-117 -4t-117 -3t-107.5 -2t-89.5 -1q-105 0 -206 4t-191 22t-165.5 54t-130.5 99t-85.5 158
t-30.5 232v1205q0 136 30.5 231.5t85.5 158.5t130.5 98.5t165.5 53.5t191 22t206 4q63 0 147.5 -1.5t172.5 -4t170.5 -5.5t142.5 -6v-367zM1089 2955h492l-460 -433h-364z" />
    <glyph glyph-name="Ecircumflex" unicode="&#xca;" horiz-adv-x="1897" 
d="M1684 1952h-644q-105 0 -169 -13t-99 -48t-46.5 -96.5t-11.5 -157.5v-264h926v-376h-926v-302q0 -97 11.5 -158.5t46.5 -97t99 -48.5t169 -13h644v-366q-41 -2 -93 -4t-109.5 -4t-117.5 -4t-116.5 -3t-107.5 -2t-90 -1q-105 0 -206 4t-191 22t-165.5 54t-130.5 99
t-85.5 158t-30.5 232v1205q0 136 30.5 231.5t85.5 158.5t130.5 98.5t165.5 53.5t191 22t206 4q42 0 94.5 -0.5t109.5 -2t116.5 -3t115.5 -3.5t107 -4t91 -4v-367zM1146 2956l422 -435h-351l-203 231l-209 -231h-346l414 435h273z" />
    <glyph glyph-name="Edieresis" unicode="&#xcb;" horiz-adv-x="1897" 
d="M1684 1952h-644q-105 0 -169 -13t-99 -48t-46.5 -96.5t-11.5 -157.5v-264h926v-376h-926v-302q0 -97 11.5 -158.5t46.5 -97t99 -48.5t169 -13h644v-366q-41 -2 -93 -4t-109.5 -4t-117.5 -4t-116.5 -3t-107.5 -2t-90 -1q-105 0 -206 4t-191 22t-165.5 54t-130.5 99
t-85.5 158t-30.5 232v1205q0 136 30.5 231.5t85.5 158.5t130.5 98.5t165.5 53.5t191 22t206 4q42 0 94.5 -0.5t109.5 -2t116.5 -3t115.5 -3.5t107 -4t91 -4v-367zM679 2516q-47 0 -87.5 17t-70.5 46t-47.5 69t-17.5 87q0 46 17.5 86.5t47.5 70t70.5 46.5t87.5 17
q46 0 85.5 -17t68 -46.5t45 -70t16.5 -86.5q0 -47 -16.5 -87t-45 -69t-68 -46t-85.5 -17zM1359 2516q-47 0 -87 17t-70 46t-47 69t-17 87q0 46 17 86.5t47 70t70 46.5t87 17q46 0 86 -17t69 -46.5t45.5 -70t16.5 -86.5q0 -47 -16.5 -87t-45.5 -69t-69 -46t-86 -17z" />
    <glyph glyph-name="Igrave" unicode="&#xcc;" horiz-adv-x="975" 
d="M250 2330h475v-2330h-475v2330zM-132 2963h491l332 -434h-363z" />
    <glyph glyph-name="Iacute" unicode="&#xcd;" horiz-adv-x="975" 
d="M250 2330h475v-2330h-475v2330zM616 2963h491l-460 -433h-363z" />
    <glyph glyph-name="Icircumflex" unicode="&#xce;" horiz-adv-x="975" 
d="M620 2948l422 -435h-350l-203 231l-209 -231h-346l413 435h273zM250 2330h475v-2330h-475v2330z" />
    <glyph glyph-name="Idieresis" unicode="&#xcf;" horiz-adv-x="975" 
d="M150 2509q-47 0 -87.5 17t-70.5 46t-47 69t-17 87q0 46 17 86.5t47 70t70.5 46.5t87.5 17q46 0 86 -17t68.5 -46.5t45 -70t16.5 -86.5q0 -47 -16.5 -87t-45 -69t-68.5 -46t-86 -17zM830 2509q-47 0 -87 17t-70 46t-47 69t-17 87q0 46 17 86.5t47 70t70 46.5t87 17
q46 0 86 -17t69 -46.5t45.5 -70t16.5 -86.5q0 -47 -16.5 -87t-45.5 -69t-69 -46t-86 -17zM250 2330h475v-2330h-475v2330z" />
    <glyph glyph-name="Eth" unicode="&#xd0;" horiz-adv-x="2304" 
d="M145 1045v310h181v933q74 14 163 26t187 21t202 14t208 5q218 0 379 -33t275.5 -99t187 -165.5t114 -231.5t57 -297t15.5 -363t-15.5 -363t-57 -297t-114 -231.5t-187 -165.5t-275.5 -99t-379 -33q-105 0 -209 5t-201.5 13.5t-186 20t-163.5 25.5v1005h-181zM800 379
q45 -7 100 -12t121 -5q153 0 258.5 28t174.5 79t106.5 123.5t55 162t21 193t3.5 217.5t-3.5 217.5t-21 192.5t-55 161.5t-106.5 123.5t-174.5 79t-258.5 28q-66 0 -121 -5t-100 -11v-596h338v-310h-338v-666z" />
    <glyph glyph-name="Ntilde" unicode="&#xd1;" horiz-adv-x="2361" 
d="M1682 621v1709h425v-1999q0 -93 -19 -160t-55.5 -110.5t-90 -64t-121.5 -20.5q-65 0 -119 15.5t-102 51t-92 94.5t-89 146l-739 1432v-1715h-425v2000q0 93 19.5 160t56.5 110t90 63.5t120 20.5q61 0 114.5 -16t102.5 -52.5t94.5 -95t89.5 -142.5zM1668 2955
q-8 -104 -35.5 -180.5t-68.5 -127.5t-90.5 -76t-100.5 -25t-89 13t-67 32.5t-51.5 42.5t-42 42.5t-38.5 32.5t-40 13q-38 0 -62.5 -39.5t-38.5 -128.5h-232q8 103 36 180t68.5 128t90 76.5t100.5 25.5t89 -13t67.5 -32.5t51.5 -42.5t41.5 -42.5t38 -32.5t40.5 -13
q38 0 62.5 39.5t38.5 127.5h232z" />
    <glyph glyph-name="Ograve" unicode="&#xd2;" 
d="M1121 -24q-181 0 -320.5 29.5t-243 91t-174 157.5t-113.5 228t-62 302t-19 381t19 381t62 302t113.5 228t174 157.5t243 91t320.5 29.5t320.5 -29.5t243 -91t174 -157.5t113.5 -228t61.5 -302t18.5 -381t-18.5 -381t-61.5 -302t-113.5 -228t-174 -157.5t-243 -91
t-320.5 -29.5zM1121 366q110 0 186.5 26t127 75.5t78.5 120t41 159.5t16 194t3 224t-3 224.5t-16 194t-41 159.5t-78.5 120t-127 75.5t-186.5 26.5t-186.5 -26.5t-126.5 -75.5t-78 -120t-41 -159.5t-16 -194t-3 -224.5t3 -224t16 -194t41 -159.5t78 -120t126.5 -75.5
t186.5 -26zM578 2962h491l332 -433h-363z" />
    <glyph glyph-name="Oacute" unicode="&#xd3;" 
d="M1121 -24q-181 0 -320.5 29.5t-243 91t-174 157.5t-114 228t-62 302t-18.5 381t18.5 381t62 302t114 228t174 157.5t243 91t320.5 29.5t320.5 -29.5t243 -91t173.5 -157.5t113.5 -228t62 -302t18.5 -381t-18.5 -381t-62 -302t-113.5 -228t-173.5 -157.5t-243 -91
t-320.5 -29.5zM1121 366q110 0 186.5 26t126.5 75.5t78 120t41 159.5t16 194t3 224t-3 224.5t-16 194t-41 159.5t-78 120t-126.5 75.5t-186.5 26.5q-111 0 -187 -26.5t-126.5 -75.5t-78.5 -120t-41 -159.5t-16 -194t-3 -224.5t3 -224t16 -194t41 -159.5t78.5 -120
t126.5 -75.5t187 -26zM1190 2962h491l-459 -433h-364z" />
    <glyph glyph-name="Ocircumflex" unicode="&#xd4;" horiz-adv-x="2241" 
d="M1121 -24q-181 0 -320.5 29.5t-243 91t-174 157.5t-113.5 228t-62 302t-19 381t19 381t62 302t113.5 228t174 157.5t243 91t320.5 29.5t320.5 -29.5t243 -91t174 -157.5t114 -228t62 -302t18.5 -381t-18.5 -381t-62 -302t-114 -228t-174 -157.5t-243 -91t-320.5 -29.5z
M1121 366q110 0 186.5 26t127 75.5t78.5 120t41 159.5t16 194t3 224t-3 224.5t-16 194t-41 159.5t-78.5 120t-127 75.5t-186.5 26.5t-186.5 -26.5t-126.5 -75.5t-78 -120t-41 -159.5t-16 -194t-3 -224.5t3 -224t16 -194t41 -159.5t78 -120t126.5 -75.5t186.5 -26zM1254 2963
l422 -435h-350l-204 231l-208 -231h-346l413 435h273z" />
    <glyph glyph-name="Otilde" unicode="&#xd5;" 
d="M1599 2930q-8 -104 -36 -180.5t-68.5 -127.5t-90 -76t-100.5 -25t-89 13t-67 32.5t-51.5 42.5t-42 42.5t-38.5 32.5t-40 13q-38 0 -62.5 -39.5t-38.5 -128.5h-232q8 103 36 180t68.5 128t90 76.5t100.5 25.5t89 -13t67.5 -32.5t51.5 -42.5t41.5 -42.5t38 -32.5t40.5 -13
q38 0 62.5 39.5t38.5 127.5h232zM1121 2354q181 0 320.5 -29.5t243 -91t174 -157.5t113.5 -228t61.5 -302t18.5 -381t-18.5 -381t-61.5 -302t-113.5 -228t-174 -157.5t-243 -91t-320.5 -29.5t-320.5 29.5t-243 91t-174 157.5t-113.5 228t-62 302t-19 381t19 381t62 302
t113.5 228t174 157.5t243 91t320.5 29.5zM1121 1965q-110 0 -186.5 -26.5t-126.5 -75.5t-78 -120t-41 -159.5t-16 -194t-3 -224.5t3 -224t16 -194t41 -159.5t78 -120t126.5 -75.5t186.5 -26t186.5 26t127 75.5t78.5 120t41 159.5t16 194t3 224t-3 224.5t-16 194t-41 159.5
t-78.5 120t-127 75.5t-186.5 26.5z" />
    <glyph glyph-name="Odieresis" unicode="&#xd6;" 
d="M785 2502q-47 0 -87.5 17t-70.5 46t-47.5 69t-17.5 87q0 46 17.5 86.5t47.5 70t70.5 46.5t87.5 17q46 0 85.5 -17t68 -46.5t45 -70t16.5 -86.5q0 -47 -16.5 -87t-45 -69t-68 -46t-85.5 -17zM1121 -24q-181 0 -320.5 29.5t-243 91t-174 157.5t-114 228t-62 302t-18.5 381
t18.5 381t62 302t114 228t174 157.5t243 91t320.5 29.5t320.5 -29.5t243 -91t174 -157.5t113.5 -228t61.5 -302t18.5 -381t-18.5 -381t-61.5 -302t-113.5 -228t-174 -157.5t-243 -91t-320.5 -29.5zM1121 366q110 0 186.5 26t126.5 75.5t78 120t41.5 159.5t16.5 194t3 224
t-3 224.5t-16.5 194t-41.5 159.5t-78 120t-126.5 75.5t-186.5 26.5t-186.5 -26.5t-126.5 -75.5t-78 -120t-41 -159.5t-16 -194t-3 -224.5t3 -224t16 -194t41 -159.5t78 -120t126.5 -75.5t186.5 -26zM1465 2502q-47 0 -87 17t-70 46t-47 69t-17 87q0 46 17 86.5t47 70
t70 46.5t87 17q46 0 86 -17t68.5 -46.5t45 -70t16.5 -86.5q0 -47 -16.5 -87t-45 -69t-68.5 -46t-86 -17z" />
    <glyph glyph-name="multiply" unicode="&#xd7;" horiz-adv-x="1772" 
d="M1630 495l-257 -261l-488 487l-485 -487l-258 258l486 486l-486 487l262 257l484 -484l485 485l254 -258l-483 -484z" />
    <glyph glyph-name="Oslash" unicode="&#xd8;" 
d="M541 -230l-273 171l148 272q-63 71 -106 164.5t-70 212t-39 262t-12 313.5q0 211 18.5 381t62 302t114 228t174 157.5t243 91t320.5 29.5q257 0 433 -61l146 267l274 -171l-149 -273q63 -71 106 -164.5t70 -212t39 -261.5t12 -313q0 -211 -18.5 -381t-62 -302
t-113.5 -228t-173.5 -157.5t-243 -91t-320.5 -29.5q-258 0 -434 61zM1121 1965q-110 0 -186.5 -26.5t-126.5 -75.5t-78 -120t-41 -159.5t-16 -194t-3 -224.5q0 -129 3 -240.5t20 -205.5l657 1202q-45 21 -101 32.5t-128 11.5zM891 410q45 -22 101.5 -33t128.5 -11
q110 0 186.5 26t126.5 75.5t78 120t41.5 159.5t16.5 194t3 224q0 129 -3.5 241t-20.5 206z" />
    <glyph glyph-name="Ugrave" unicode="&#xd9;" horiz-adv-x="2229" 
d="M1986 785q0 -160 -28 -282.5t-81 -212.5t-129.5 -150t-173.5 -96.5t-213.5 -52t-248.5 -15.5t-248.5 15.5t-214 52t-174 96.5t-129.5 150t-81 212.5t-28 282.5v1545h467v-1571q0 -104 21.5 -177t69.5 -119.5t126 -68t191 -21.5q112 0 190 21.5t126 68t69.5 119.5
t21.5 177v1571h467v-1545zM561 2946h491l332 -433h-363z" />
    <glyph glyph-name="Uacute" unicode="&#xda;" horiz-adv-x="2229" 
d="M1986 785q0 -160 -28 -282.5t-81 -212.5t-129.5 -150t-173.5 -96.5t-213.5 -52t-248.5 -15.5t-248.5 15.5t-214 52t-174 96.5t-129.5 150t-81 212.5t-28 282.5v1545h467v-1571q0 -104 21.5 -177t69.5 -119.5t126 -68t191 -21.5q112 0 190 21.5t126 68t69.5 119.5
t21.5 177v1571h467v-1545zM1190 2946h491l-460 -433h-363z" />
    <glyph glyph-name="Ucircumflex" unicode="&#xdb;" horiz-adv-x="2229" 
d="M1986 785q0 -160 -28 -282.5t-81 -212.5t-129.5 -150t-174 -96.5t-214 -52t-248.5 -15.5t-248.5 15.5t-213.5 52t-173.5 96.5t-129.5 150t-81 212.5t-28 282.5v1545h467v-1571q0 -104 21.5 -177t69.5 -119.5t125.5 -68t190.5 -21.5t191 21.5t126 68t69.5 119.5t21.5 177
v1571h467v-1545zM1261 2947l421 -435h-350l-203 231l-209 -231h-346l414 435h273z" />
    <glyph glyph-name="Udieresis" unicode="&#xdc;" horiz-adv-x="2229" 
d="M1986 785q0 -160 -28 -282.5t-81 -212.5t-129.5 -150t-173.5 -96.5t-213.5 -52t-248.5 -15.5t-248.5 15.5t-214 52t-174 96.5t-129.5 150t-81 212.5t-28 282.5v1545h467v-1571q0 -104 21.5 -177t69.5 -119.5t126 -68t191 -21.5q112 0 190 21.5t126 68t69.5 119.5
t21.5 177v1571h467v-1545zM775 2510q-47 0 -87.5 17t-70.5 46t-47.5 69t-17.5 87q0 46 17.5 86.5t47.5 70t70.5 46.5t87.5 17q46 0 85.5 -17t68 -46.5t45 -70t16.5 -86.5q0 -47 -16.5 -87t-45 -69t-68 -46t-85.5 -17zM1454 2510q-47 0 -87 17t-70 46t-47 69t-17 87
q0 46 17 86.5t47 70t70 46.5t87 17q46 0 86 -17t69 -46.5t45.5 -70t16.5 -86.5q0 -47 -16.5 -87t-45.5 -69t-69 -46t-86 -17z" />
    <glyph glyph-name="Yacute" unicode="&#xdd;" horiz-adv-x="2024" 
d="M1247 0h-473v898l-750 1432h510l480 -966l495 966h491l-753 -1432v-898zM1105 2936h492l-460 -433h-363z" />
    <glyph glyph-name="Thorn" unicode="&#xde;" horiz-adv-x="2009" 
d="M228 2330h473v-389q70 5 142 7.5t144 2.5q128 0 247 -10t223 -38t190 -78t147 -130t95 -194t34 -270q0 -151 -31 -264.5t-88 -194.5t-138.5 -134t-183 -84t-220.5 -43t-251 -12q-38 0 -78.5 1t-80.5 2.5t-78.5 3t-72.5 3.5v-509h-473v2330zM701 883q72 -9 143 -11t144 -2
q109 0 195.5 15.5t146.5 55.5t92 110t32 180q0 95 -23.5 161.5t-77.5 108.5t-141 61t-213 19q-71 0 -148.5 -5t-149.5 -15v-678z" />
    <glyph glyph-name="germandbls" unicode="&#xdf;" horiz-adv-x="2115" 
d="M667 0h-445v1569q0 249 46.5 424.5t147 286.5t259 162t381.5 51q213 0 365 -44.5t249.5 -122.5t143 -184t45.5 -229q0 -87 -22 -152.5t-58.5 -115t-83 -86.5t-94.5 -66.5t-94.5 -55t-83 -53.5t-58.5 -60.5t-22 -75.5q0 -56 28.5 -90.5t75 -59t106 -44.5t122 -44.5
t122 -59.5t106 -91t75 -138t28.5 -200q0 -152 -47.5 -256t-130.5 -168.5t-195 -92.5t-242 -28q-60 0 -130 5.5t-143 16t-145 25.5t-136 35l38 329q48 -11 106 -21.5t117 -18.5t114 -13.5t98 -5.5q21 0 47.5 2t53.5 8t53.5 18t46.5 32t32.5 50t12.5 72q0 67 -28 109.5
t-74.5 71.5t-105.5 49.5t-120.5 44.5t-120 57t-105 85.5t-74.5 130.5t-28 193q0 87 22 149.5t58 108.5t82.5 79.5t94.5 61t94.5 53t82.5 56.5t58 71.5t22 96.5q0 44 -20 82t-63 65.5t-109.5 43.5t-159.5 16q-107 0 -182.5 -27.5t-122.5 -93t-68.5 -174t-21.5 -270.5v-1569z
" />
    <glyph glyph-name="agrave" unicode="&#xe0;" horiz-adv-x="1854" 
d="M829 -24q-185 0 -315 35.5t-213 107t-121 178t-38 247.5q0 118 27 213.5t86.5 166.5t153 118t226.5 68q140 23 281.5 31t289.5 14q0 77 -18.5 133t-58.5 93t-102 54.5t-149 17.5q-81 0 -164 -4t-163.5 -10.5t-157 -14.5t-143.5 -17l-37 330q70 12 151.5 24t170.5 22
t184 16t193 6q99 0 191.5 -10.5t173.5 -35.5t147.5 -67t114 -106t74 -151.5t26.5 -202.5v-753q0 -91 -3.5 -171.5t-11.5 -166.5q-155 -90 -354.5 -127.5t-440.5 -37.5zM1206 865q-50 -3 -103.5 -5.5t-106.5 -6.5t-104 -10.5t-97 -17.5q-59 -14 -100 -32.5t-67 -49t-37.5 -77
t-11.5 -116.5q0 -71 20 -116.5t58 -72.5t94.5 -37.5t128.5 -10.5q37 0 77.5 1.5t81 7t80.5 15t76 24.5q6 54 8.5 116.5t2.5 122.5v265zM1126 2004h-339l-430 535h459z" />
    <glyph glyph-name="aacute" unicode="&#xe1;" horiz-adv-x="1854" 
d="M829 -24q-185 0 -315 35.5t-213 107t-121 178t-38 247.5q0 118 27 213.5t86.5 166.5t153 118t226.5 68q140 23 281.5 31t289.5 14q0 77 -18.5 133t-58.5 93t-101.5 54.5t-148.5 17.5q-81 0 -164 -4t-164 -10.5t-157.5 -14.5t-143.5 -17l-36 330q70 12 151 24t170 22
t184 16t193 6q99 0 191.5 -10.5t173.5 -35.5t147.5 -67t114 -106t74 -151.5t26.5 -202.5v-753q0 -91 -3.5 -171.5t-11.5 -166.5q-155 -90 -354.5 -127.5t-440.5 -37.5zM1206 865q-50 -3 -103.5 -5.5t-106.5 -6.5t-104 -10.5t-97 -17.5q-59 -14 -100 -32.5t-67 -49t-37.5 -77
t-11.5 -116.5q0 -71 20 -116.5t58 -72.5t94.5 -37.5t128.5 -10.5q37 0 77.5 1.5t81 7t80.5 15t76 24.5q6 54 8.5 116.5t2.5 122.5v265zM1039 2001h-339l310 535h459z" />
    <glyph glyph-name="acircumflex" unicode="&#xe2;" horiz-adv-x="1854" 
d="M828 -24q-185 0 -315 35.5t-212.5 107t-120.5 178t-38 247.5q0 118 27 213.5t86.5 166.5t153 118t226.5 68q140 23 281 31t290 14q0 77 -18.5 133t-58.5 93t-102 54.5t-149 17.5q-81 0 -164 -4t-164 -10.5t-157.5 -14.5t-143.5 -17l-36 330q70 12 151 24t170 22t184.5 16
t193.5 6q99 0 191.5 -10.5t173.5 -35.5t147.5 -67t114 -106t74 -151.5t26.5 -202.5v-753q0 -91 -3.5 -171.5t-11.5 -166.5q-155 -90 -355 -127.5t-441 -37.5zM1206 865q-50 -3 -103.5 -5.5t-106.5 -6.5t-104.5 -10.5t-97.5 -17.5q-59 -14 -99.5 -32.5t-66.5 -49t-37.5 -77
t-11.5 -116.5q0 -71 19.5 -116.5t58 -72.5t94.5 -37.5t129 -10.5q37 0 77.5 1.5t81 7t80.5 15t76 24.5q6 54 8.5 116.5t2.5 122.5v265zM1125 1991l-190 284l-195 -284h-324l387 536h255l395 -536h-328z" />
    <glyph glyph-name="atilde" unicode="&#xe3;" horiz-adv-x="1854" 
d="M828 -24q-185 0 -315 35.5t-212.5 107t-120.5 178t-38 247.5q0 118 27 213.5t86.5 166.5t153 118t226.5 68q140 23 281 31t289 14q0 77 -18.5 133t-58 93t-101.5 54.5t-149 17.5q-81 0 -164 -4t-164 -10.5t-157.5 -14.5t-143.5 -17l-36 330q70 12 151 24t170 22t184 16
t193 6q99 0 192 -10.5t174 -35.5t147.5 -67t114 -106t74 -151.5t26.5 -202.5v-753q0 -91 -3.5 -171.5t-11.5 -166.5q-155 -90 -355 -127.5t-441 -37.5zM1408 2477q-8 -108 -36 -188t-68.5 -133t-90 -79t-100.5 -26t-89 13.5t-67 33.5t-51.5 44t-42 44t-38.5 33.5t-40 13.5
q-38 0 -62.5 -41t-38.5 -133h-232q8 108 36 188t68.5 133t90 79t100.5 26t89 -13.5t67.5 -33.5t51.5 -44t41.5 -44t38 -33.5t40.5 -13.5q38 0 62.5 40.5t38.5 133.5h232zM578 550q0 -71 20 -116.5t58.5 -72.5t94.5 -37.5t129 -10.5q37 0 77.5 1.5t81 7t80 15t75.5 24.5
q6 54 8.5 116.5t2.5 122.5v265q-50 -3 -103 -5.5t-106 -6.5t-104.5 -10.5t-97.5 -17.5q-59 -14 -100 -32.5t-66.5 -49t-37.5 -77t-12 -116.5z" />
    <glyph glyph-name="adieresis" unicode="&#xe4;" horiz-adv-x="1854" 
d="M828 -24q-185 0 -315 35.5t-212.5 107t-120.5 178t-38 247.5q0 118 27 213.5t86.5 166.5t153 118t226.5 68q140 23 281.5 31t289.5 14q0 77 -18.5 133t-58.5 93t-102 54.5t-149 17.5q-81 0 -164 -4t-163.5 -10.5t-157 -14.5t-143.5 -17l-37 330q70 12 151.5 24t170.5 22
t184 16t193 6q99 0 191.5 -10.5t173.5 -35.5t147.5 -67t114 -106t74 -151.5t26.5 -202.5v-753q0 -91 -3.5 -171.5t-11.5 -166.5q-155 -90 -355 -127.5t-441 -37.5zM1206 865q-50 -3 -103.5 -5.5t-106.5 -6.5t-104 -10.5t-97 -17.5q-59 -14 -100 -32.5t-67 -49t-37.5 -77
t-11.5 -116.5q0 -71 19.5 -116.5t58 -72.5t94.5 -37.5t129 -10.5q37 0 77.5 1.5t81 7t80.5 15t76 24.5q6 54 8.5 116.5t2.5 122.5v265zM597 2474q46 0 86 -17t68.5 -46.5t45 -70t16.5 -86.5q0 -47 -16.5 -87t-45 -69t-68.5 -46t-86 -17q-47 0 -87.5 17t-70.5 46t-47 69
t-17 87q0 46 17 86.5t47 70t70.5 46.5t87.5 17zM1277 2474q46 0 86 -17t69 -46.5t45.5 -70t16.5 -86.5q0 -47 -16.5 -87t-45.5 -69t-69 -46t-86 -17q-47 0 -87 17t-70 46t-47 69t-17 87q0 46 17 86.5t47 70t70 46.5t87 17z" />
    <glyph glyph-name="aring" unicode="&#xe5;" horiz-adv-x="1854" 
d="M829 -24q-185 0 -315 35.5t-213 107t-121 178t-38 247.5q0 118 27 213.5t86.5 166.5t153 118t226.5 68q140 23 281.5 31t289.5 14q0 77 -18.5 133t-58.5 93t-102 54.5t-149 17.5q-80 0 -163 -4t-164 -10.5t-157.5 -14.5t-143.5 -17l-36 330q70 12 151 24t170 22t184 16
t193 6q99 0 191.5 -10.5t173.5 -35.5t147.5 -67t114 -106t74 -151.5t26.5 -202.5v-753q0 -91 -3.5 -171.5t-11.5 -166.5q-155 -90 -354.5 -127.5t-440.5 -37.5zM1206 865q-50 -3 -103.5 -5.5t-106.5 -6.5t-104 -10.5t-97 -17.5q-59 -14 -100 -32.5t-67 -49t-37.5 -77
t-11.5 -116.5q0 -71 20 -116.5t58 -72.5t94.5 -37.5t128.5 -10.5q37 0 77.5 1.5t81 7t80.5 15t76 24.5q6 54 8.5 116.5t2.5 122.5v265zM921 2658q72 0 135.5 -27.5t111 -74.5t75 -111t27.5 -136t-27.5 -135.5t-75 -110.5t-111 -74.5t-135.5 -27.5t-135.5 27.5t-111 74.5
t-75 110.5t-27.5 135.5t27.5 136t75 111t111 74.5t135.5 27.5zM921 2482q-36 0 -67 -13.5t-54.5 -37t-37 -55t-13.5 -67.5t13.5 -67t37 -54t54.5 -36.5t67 -13.5t67 13.5t54.5 36.5t37 54t13.5 67t-13.5 67.5t-37 55t-54.5 37t-67 13.5z" />
    <glyph glyph-name="ae" unicode="&#xe6;" horiz-adv-x="2950" 
d="M2747 44q-71 -12 -153 -24t-178 -21.5t-207.5 -16t-240.5 -6.5q-146 0 -257 28.5t-195 83.5q-140 -60 -311.5 -86t-375.5 -26q-185 0 -315 35.5t-213 107t-121 178t-38 247.5q0 118 27 213.5t86.5 166.5t153 118t226.5 68q140 23 281.5 31t289.5 14q0 77 -18.5 133
t-58 93t-101.5 54.5t-149 17.5q-81 0 -164 -4t-164 -10.5t-157.5 -14.5t-143.5 -17l-36 330q70 12 151 24t170 22t184 16t193 6q82 0 159 -7t147 -23.5t131 -44t111 -68.5q94 74 228 108.5t317 34.5q162 0 283.5 -28t208.5 -80.5t143.5 -129.5t89.5 -174.5t46 -215
t13 -252.5q0 -71 -6 -143q-51 -9 -116 -18.5t-138.5 -18.5t-151.5 -17t-154.5 -15t-149 -12t-133.5 -8l-294 -15q6 -104 36.5 -171t84 -106t129 -54t171.5 -15q182 0 343.5 15t299.5 32zM1206 865q-50 -3 -103.5 -5.5t-106.5 -6.5t-104 -10.5t-97 -17.5q-59 -14 -100 -32.5
t-67 -49t-37.5 -77t-11.5 -116.5q0 -71 20 -116.5t58.5 -72.5t94.5 -37.5t129 -10.5q37 0 77 1.5t80.5 7t80.5 15t76 24.5q6 54 8.5 116.5t2.5 122.5v265zM2340 1032q2 15 3 35.5t1 35.5q0 88 -17.5 155.5t-57.5 113.5t-105 69.5t-159 23.5q-123 0 -196 -36t-112 -100.5
t-51 -153t-12 -193.5l305 15q44 2 97.5 6t107.5 8.5t105.5 10t90.5 10.5z" />
    <glyph glyph-name="ccedilla" unicode="&#xe7;" horiz-adv-x="1583" 
d="M1402 1411q-81 16 -161 28.5t-162 12.5q-104 0 -179 -11t-126 -36.5t-82 -67t-47.5 -102t-22 -142t-5.5 -186.5q0 -100 3.5 -181t18 -144t44 -109.5t81 -76.5t129.5 -44.5t190 -14.5q82 0 159 12.5t160 29.5l39 -335q-85 -21 -183 -37.5t-213 -24.5l-98 -154
q48 -5 94 -23t82 -48.5t58 -72.5t22 -95q0 -79 -32.5 -134.5t-87 -90t-125 -50t-146.5 -15.5q-36 0 -74 5t-74.5 15t-71 23.5t-63.5 31.5l64 171q62 -31 117.5 -44t96.5 -13q22 0 43 4.5t37.5 15t27 27.5t10.5 43q0 25 -14.5 44.5t-38.5 33.5t-54.5 23.5t-62 15t-62.5 8
t-55 2.5l162 273q-136 7 -236 46.5t-170 104.5t-114 151.5t-68.5 187t-33.5 212.5t-9 227q0 146 13 269t46.5 223t91 176t145.5 127t210 77t286 26q152 0 267.5 -19.5t209.5 -48.5z" />
    <glyph glyph-name="egrave" unicode="&#xe8;" horiz-adv-x="1905" 
d="M924 -24q-151 0 -266 31t-200 89t-141.5 139.5t-91 183.5t-49 221t-14.5 251q0 242 41 415t134.5 284t246.5 163t377 52q162 0 283.5 -28t208.5 -80.5t143.5 -129.5t89 -174.5t45.5 -215t13 -252.5q0 -35 -1 -71t-4 -72q-51 -9 -116 -18.5t-138.5 -18.5t-151.5 -17
t-155 -15t-149 -12t-133 -8l-294 -15q6 -104 36.5 -171t84 -106t129 -54t171.5 -15q182 0 343 15t299 32l38 -335q-71 -12 -153 -24t-178 -21.5t-207.5 -16t-240.5 -6.5zM895 997q44 2 97.5 6t107.5 8.5t105.5 10t90.5 10.5q2 15 3 35.5t1 35.5q0 88 -17.5 155.5
t-57.5 113.5t-105 69.5t-159 23.5q-123 0 -196 -36t-112 -100.5t-51 -153t-12 -193.5zM1244 2004h-340l-430 535h459z" />
    <glyph glyph-name="eacute" unicode="&#xe9;" horiz-adv-x="1906" 
d="M924 -24q-151 0 -266 31t-199.5 89t-141.5 139.5t-91.5 183.5t-49 221t-14.5 251q0 242 41 415t135 284t247 163t377 52q162 0 283 -28t208 -80.5t143.5 -129.5t89.5 -174.5t46 -215t13 -252.5q0 -71 -6 -143q-51 -9 -116 -18.5t-138.5 -18t-151.5 -17t-154.5 -15
t-149 -12t-133.5 -8.5l-293 -15q6 -104 36.5 -171t83.5 -106t129 -54t172 -15q181 0 342.5 15t299.5 32l37 -335q-71 -12 -152.5 -24t-177.5 -21.5t-207.5 -16t-241.5 -6.5zM896 997q43 2 96.5 6t108 8.5t105.5 10t90 10.5q2 15 3 35.5t1 35.5q0 88 -17.5 155.5t-57.5 113.5
t-104.5 69.5t-158.5 23.5q-123 0 -196.5 -36t-112.5 -100.5t-51 -153t-12 -193.5zM1113 1996h-340l311 535h459z" />
    <glyph glyph-name="ecircumflex" unicode="&#xea;" horiz-adv-x="1906" 
d="M924 -24q-151 0 -266 31t-199.5 89t-141.5 139.5t-91.5 183.5t-49 221t-14.5 251q0 242 41 415t135 284t247 163t377 52q162 0 283 -28t208 -80.5t143.5 -129.5t89.5 -174.5t46 -215t13 -252.5q0 -71 -6 -143q-76 -14 -182.5 -28t-223 -26t-231 -21t-206.5 -14l-293 -15
q6 -104 36.5 -171t83.5 -106t129 -54t172 -15q181 0 342.5 15t299.5 32l37 -335q-71 -12 -152.5 -24t-177.5 -21.5t-207.5 -16t-241.5 -6.5zM896 997q44 2 97.5 6t107.5 8.5t105.5 10t90.5 10.5q2 15 2.5 35.5t0.5 35.5q0 88 -17.5 155.5t-57 113.5t-104.5 69.5t-159 23.5
q-123 0 -196 -36t-112 -100.5t-51 -153t-12 -193.5zM1176 1991l-190 284l-196 -284h-323l387 536h255l394 -536h-327z" />
    <glyph glyph-name="edieresis" unicode="&#xeb;" horiz-adv-x="1906" 
d="M924 -24q-151 0 -266 31t-199.5 89t-141.5 139.5t-91.5 183.5t-49 221t-14.5 251q0 242 41 415t135 284t247 163t377 52q162 0 283 -28t208 -80.5t143.5 -129.5t89.5 -174.5t46 -215t13 -252.5q0 -71 -6 -143q-51 -9 -116 -18.5t-138.5 -18t-151.5 -17t-154.5 -15
t-149 -12t-133.5 -8.5l-293 -15q6 -104 36.5 -171t83.5 -106t129 -54t172 -15q181 0 342.5 15t299.5 32l37 -335q-71 -12 -152.5 -24t-177.5 -21.5t-207.5 -16t-241.5 -6.5zM664 2474q46 0 86 -17t68.5 -46.5t45 -70t16.5 -86.5q0 -47 -16.5 -87t-45 -69t-68.5 -46t-86 -17
q-47 0 -87.5 17t-70.5 46t-47.5 69t-17.5 87q0 46 17.5 86.5t47.5 70t70.5 46.5t87.5 17zM896 997q43 2 96.5 6t108 8.5t105.5 10t90 10.5q2 15 3 35.5t1 35.5q0 88 -17.5 155.5t-57.5 113.5t-104.5 69.5t-158.5 23.5q-123 0 -196.5 -36t-112.5 -100.5t-51 -153t-12 -193.5z
M1344 2474q46 0 86 -17t69 -46.5t45.5 -70t16.5 -86.5q0 -47 -16.5 -87t-45.5 -69t-69 -46t-86 -17q-47 0 -87 17t-70 46t-47 69t-17 87q0 46 17 86.5t47 70t70 46.5t87 17z" />
    <glyph glyph-name="igrave" unicode="&#xec;" horiz-adv-x="915" 
d="M234 1781h447v-1781h-447v1781zM-139 2562h458l310 -536h-339z" />
    <glyph glyph-name="iacute" unicode="&#xed;" horiz-adv-x="915" 
d="M234 1781h447v-1781h-447v1781zM595 2562h460l-430 -535h-340z" />
    <glyph glyph-name="icircumflex" unicode="&#xee;" horiz-adv-x="915" 
d="M582 2573l394 -536h-328l-189 284l-196 -284h-324l388 536h255zM234 1781h447v-1781h-447v1781z" />
    <glyph glyph-name="idieresis" unicode="&#xef;" horiz-adv-x="915" 
d="M121 2050q-47 0 -87.5 17t-70.5 46t-47.5 69t-17.5 87q0 46 17.5 86.5t47.5 70t70.5 46.5t87.5 17q46 0 85.5 -17t68 -46.5t45 -70t16.5 -86.5q0 -47 -16.5 -87t-45 -69t-68 -46t-85.5 -17zM801 2050q-47 0 -87 17t-70 46t-47 69t-17 87q0 46 17 86.5t47 70t70 46.5
t87 17q46 0 86 -17t69 -46.5t45.5 -70t16.5 -86.5q0 -47 -16.5 -87t-45.5 -69t-69 -46t-86 -17zM234 1781h447v-1781h-447v1781z" />
    <glyph glyph-name="eth" unicode="&#xf0;" horiz-adv-x="1903" 
d="M1548 2417l125 -206l-267 -98q83 -135 144.5 -281.5t102.5 -301.5t61 -315.5t20 -323.5q0 -247 -42 -420.5t-136.5 -283.5t-247 -160.5t-372.5 -50.5t-372.5 49.5t-247 158.5t-136.5 283t-42 424q0 235 42 401t136.5 271t246.5 153.5t371 48.5q119 0 212 -27
q-53 118 -127 233l-282 -103l-124 208l262 95q-42 51 -84 99.5t-86 93.5l392 129q45 -43 86.5 -87.5t80.5 -92.5zM1290 891q0 147 -16 246t-56 159.5t-108.5 86t-173.5 25.5t-173.5 -23.5t-108.5 -82.5t-55.5 -159t-15.5 -252q0 -168 15.5 -276t55.5 -170.5t108.5 -86.5
t173.5 -24t173.5 26t108.5 90t56 171.5t16 269.5z" />
    <glyph glyph-name="ntilde" unicode="&#xf1;" horiz-adv-x="1967" 
d="M667 0h-442v1302q0 91 3.5 171.5t11.5 166.5q158 84 359 124.5t439 40.5q160 0 275 -23t194 -65.5t126.5 -103t73 -135t33.5 -161.5t8 -183v-1134h-442v1094q0 94 -12 161.5t-49.5 110.5t-107 63.5t-184.5 20.5q-36 0 -74.5 -3t-74.5 -9t-68.5 -15t-57.5 -21
q-6 -54 -8.5 -116.5t-2.5 -122.5v-1163zM1479 2487q-8 -108 -35.5 -188t-68 -133t-90 -79t-100.5 -26t-89 13.5t-67.5 33.5t-52 44t-42 44t-38 33.5t-40.5 13.5q-38 0 -62.5 -41t-38.5 -133h-232q8 108 36 188t68.5 133t90 79t100.5 26t89 -13.5t67.5 -33.5t51.5 -44
t41.5 -44t38.5 -33.5t41 -13.5q37 0 61.5 40.5t38.5 133.5h232z" />
    <glyph glyph-name="ograve" unicode="&#xf2;" horiz-adv-x="1925" 
d="M962 -24q-220 0 -372.5 49.5t-247 158.5t-136.5 283t-42 424q0 249 42 423t136.5 283t247 158.5t372.5 49.5t372.5 -50.5t247 -160.5t136.5 -283.5t42 -419.5q0 -247 -42 -420.5t-136.5 -283.5t-247 -160.5t-372.5 -50.5zM962 334q105 0 173.5 26t108.5 90t56 171.5
t16 269.5t-16 269t-56 171t-108.5 90.5t-173.5 26.5t-173.5 -24.5t-108.5 -87t-55.5 -170.5t-15.5 -275q0 -168 15.5 -276t55.5 -170.5t108.5 -86.5t173.5 -24zM449 2539h460l310 -535h-340z" />
    <glyph glyph-name="oacute" unicode="&#xf3;" horiz-adv-x="1925" 
d="M962 -24q-220 0 -372.5 49.5t-247 158.5t-136.5 283t-42 424q0 249 42 423t136.5 283t247 158.5t372.5 49.5t372.5 -50.5t247 -160.5t136.5 -283.5t42 -419.5q0 -247 -42 -420.5t-136.5 -283.5t-247 -160.5t-372.5 -50.5zM962 334q105 0 173.5 26t108.5 90t56 171.5
t16 269.5t-16 269t-56 171t-108.5 90.5t-173.5 26.5t-173.5 -24.5t-108 -87t-55.5 -170.5t-16 -275q0 -168 15.5 -276t55.5 -170.5t108.5 -86.5t173.5 -24zM1030 2553h459l-429 -535h-340z" />
    <glyph glyph-name="ocircumflex" unicode="&#xf4;" horiz-adv-x="1925" 
d="M962 -24q-220 0 -372.5 49.5t-247 158.5t-136.5 283t-42 424q0 249 42 423t136.5 283t247 158.5t372.5 49.5t372.5 -50.5t247 -160.5t136.5 -283.5t42 -419.5q0 -247 -42 -420.5t-136.5 -283.5t-247 -160.5t-372.5 -50.5zM962 334q105 0 173.5 26t108.5 90t56 171.5
t16 269.5t-16 269t-56 171t-108.5 90.5t-173.5 26.5t-173 -24.5t-108 -87t-55.5 -170.5t-15.5 -275q0 -168 15.5 -276t55 -170.5t108 -86.5t173.5 -24zM1087 2537l394 -536h-328l-190 284l-195 -284h-324l388 536h255z" />
    <glyph glyph-name="otilde" unicode="&#xf5;" horiz-adv-x="1925" 
d="M1439 2467q-8 -108 -35.5 -188t-68.5 -133t-90.5 -79t-100.5 -26t-89 13.5t-67 33.5t-51.5 44t-42 44t-38 33.5t-40.5 13.5q-38 0 -62.5 -41t-38.5 -133h-232q8 108 36 188t68.5 133t90 79t100.5 26t89 -13.5t67.5 -33.5t51.5 -44t41.5 -44t38 -33.5t40.5 -13.5
q38 0 62.5 40.5t38.5 133.5h232zM961 1805q220 0 372.5 -50.5t247.5 -160.5t137 -283.5t42 -419.5q0 -247 -42 -420.5t-137 -283.5t-247.5 -160.5t-372.5 -50.5t-372 49.5t-246.5 158.5t-136.5 283t-42 424q0 249 42 423t136.5 283t246.5 158.5t372 49.5zM961 1448
q-105 0 -173 -24.5t-108 -87t-55.5 -170.5t-15.5 -275q0 -168 15.5 -276t55.5 -170.5t108 -86.5t173 -24q106 0 174.5 26t108.5 90t56 171.5t16 269.5t-16 269t-56 171t-109 90.5t-174 26.5z" />
    <glyph glyph-name="odieresis" unicode="&#xf6;" horiz-adv-x="1925" 
d="M626 2035q-47 0 -87.5 17t-70.5 46t-47.5 69t-17.5 87q0 46 17.5 86.5t47.5 70t70.5 46.5t87.5 17q46 0 85.5 -17t68 -46.5t45 -70t16.5 -86.5q0 -47 -16.5 -87t-45 -69t-68 -46t-85.5 -17zM962 -24q-220 0 -372.5 49.5t-247 158.5t-136.5 283t-42 424q0 249 42 423
t136.5 283t247 158.5t372.5 49.5t372.5 -50.5t247 -160.5t136.5 -283.5t42 -419.5q0 -247 -42 -420.5t-136.5 -283.5t-247 -160.5t-372.5 -50.5zM962 334q105 0 173.5 26t108.5 90t56 171.5t16 269.5t-16 269t-56 171t-108.5 90.5t-173.5 26.5t-173.5 -24.5t-108 -87
t-55.5 -170.5t-16 -275q0 -168 15.5 -276t55.5 -170.5t108.5 -86.5t173.5 -24zM1306 2035q-47 0 -87 17t-70 46t-47 69t-17 87q0 46 17 86.5t47 70t70 46.5t87 17q46 0 86 -17t68.5 -46.5t45 -70t16.5 -86.5q0 -47 -16.5 -87t-45 -69t-68.5 -46t-86 -17z" />
    <glyph glyph-name="divide" unicode="&#xf7;" horiz-adv-x="1917" 
d="M958 53q-53 0 -98.5 20t-80 54.5t-54 80.5t-19.5 99t19.5 99.5t54 81t80 54t98.5 19.5t99.5 -19.5t81 -54t54.5 -81t20 -99.5t-20 -99t-54.5 -80.5t-81 -54.5t-99.5 -20zM958 1396q-53 0 -98.5 20t-80 54.5t-54 80.5t-19.5 99t19.5 99t54 80.5t80 54t98.5 19.5
t99.5 -19.5t81 -54t54.5 -80.5t20 -99t-20 -99t-54.5 -80.5t-81 -54.5t-99.5 -20zM131 1168h1655v-379h-1655v379z" />
    <glyph glyph-name="oslash" unicode="&#xf8;" horiz-adv-x="1925" 
d="M453 -200l-184 117l125 215q-122 106 -176 292t-54 467q0 249 42 423t136.5 283t247 158.5t372.5 49.5q223 0 376 -52l133 228l184 -117l-127 -218q61 -53 105 -125.5t72.5 -166.5t41.5 -209t13 -254q0 -247 -42 -420.5t-136.5 -283.5t-247 -160.5t-372.5 -50.5
q-112 0 -205.5 12.5t-171.5 38.5zM962 1448q-105 0 -173.5 -24.5t-108.5 -87t-55.5 -170.5t-15.5 -275q0 -112 6.5 -195.5t21.5 -145.5l506 868q-36 16 -80.5 23t-100.5 7zM780 361q35 -14 80 -20.5t102 -6.5q105 0 173.5 26t108.5 90t56 171.5t16 269.5q0 109 -7 192.5
t-24 146.5z" />
    <glyph glyph-name="ugrave" unicode="&#xf9;" horiz-adv-x="1958" 
d="M215 1781h443v-1094q0 -94 12 -161.5t48.5 -110.5t105.5 -63.5t183 -20.5q36 0 73.5 3t73.5 9t68 15t57 21q6 54 8.5 116.5t2.5 122.5v1163h441v-1302q0 -91 -3.5 -171.5t-11.5 -166.5q-157 -84 -357 -124.5t-436 -40.5q-160 0 -274.5 23t-193 65.5t-126 103t-73 135
t-33.5 161.5t-8 183v1134zM437 2562h459l310 -535h-339z" />
    <glyph glyph-name="uacute" unicode="&#xfa;" horiz-adv-x="1958" 
d="M215 1781h443v-1094q0 -94 12 -161.5t48.5 -110.5t105.5 -63.5t183 -20.5q36 0 73.5 3t73.5 9t68 15t57 21q6 54 8.5 116.5t2.5 122.5v1163h441v-1302q0 -91 -3.5 -171.5t-11.5 -166.5q-157 -84 -357 -124.5t-437 -40.5q-159 0 -273.5 23t-193 65.5t-126 103t-73 135
t-33.5 161.5t-8 183v1134zM1064 2582h460l-430 -535h-340z" />
    <glyph glyph-name="ucircumflex" unicode="&#xfb;" horiz-adv-x="1958" 
d="M215 1781h442v-1094q0 -94 12 -161.5t49 -110.5t106 -63.5t183 -20.5q36 0 73.5 3t73 9t68 15t57.5 21q6 54 8.5 116.5t2.5 122.5v1163h441v-1302q0 -91 -3.5 -171.5t-11.5 -166.5q-157 -84 -357.5 -124.5t-436.5 -40.5q-160 0 -274.5 23t-193 65.5t-125.5 103t-72.5 135
t-33.5 161.5t-8 183v1134zM1097 2593l395 -536h-328l-190 284l-195 -284h-324l387 536h255z" />
    <glyph glyph-name="udieresis" unicode="&#xfc;" horiz-adv-x="1958" 
d="M215 1781h443v-1094q0 -94 12 -161.5t48.5 -110.5t105.5 -63.5t183 -20.5q36 0 73.5 3t73.5 9t68 15t57 21q6 54 8.5 116.5t2.5 122.5v1163h441v-1302q0 -91 -3.5 -171.5t-11.5 -166.5q-157 -84 -357 -124.5t-436 -40.5q-160 0 -274.5 23t-193 65.5t-126 103t-73 135
t-33.5 161.5t-8 183v1134zM636 2071q-47 0 -87.5 17t-70.5 46t-47.5 69t-17.5 87q0 46 17.5 86.5t47.5 70t70.5 46.5t87.5 17q46 0 86 -17t68.5 -46.5t45 -70t16.5 -86.5q0 -47 -16.5 -87t-45 -69t-68.5 -46t-86 -17zM1316 2071q-47 0 -87 17t-70 46t-47 69t-17 87
q0 46 17 86.5t47 70t70 46.5t87 17q46 0 86 -17t69 -46.5t45.5 -70t16.5 -86.5q0 -47 -16.5 -87t-45.5 -69t-69 -46t-86 -17z" />
    <glyph glyph-name="yacute" unicode="&#xfd;" horiz-adv-x="1835" 
d="M1316 1781h452l-829 -2437h-452l280 781l-716 1656h471l446 -1099zM1033 2542h460l-430 -535h-340z" />
    <glyph glyph-name="thorn" unicode="&#xfe;" horiz-adv-x="1942" 
d="M217 2330h444v-563q80 17 169.5 27.5t170.5 10.5q205 0 354.5 -46t246.5 -153t143.5 -282t46.5 -434t-46.5 -434t-143.5 -281.5t-246.5 -152.5t-354.5 -46q-81 0 -170.5 10.5t-169.5 27.5v-670h-444v2986zM661 365q27 -9 58.5 -16t64.5 -12t65 -8t61 -3q106 0 179.5 19.5
t122 55t75.5 86t40 113t16 136t3 154.5t-2.5 154.5t-15.5 136t-40 113.5t-75.5 86.5t-122.5 55t-180 19.5q-29 0 -61 -3t-65 -8t-64.5 -12t-58.5 -16v-1051z" />
    <glyph glyph-name="ydieresis" unicode="&#xff;" horiz-adv-x="1835" 
d="M606 2041q-47 0 -87.5 17t-70.5 46t-47.5 69t-17.5 87q0 46 17.5 86.5t47.5 70t70.5 46.5t87.5 17q46 0 85.5 -17t68 -46.5t45 -70t16.5 -86.5q0 -47 -16.5 -87t-45 -69t-68 -46t-85.5 -17zM1285 2041q-47 0 -87 17t-70 46t-47 69t-17 87q0 46 17 86.5t47 70t70 46.5
t87 17q46 0 86 -17t69 -46.5t45.5 -70t16.5 -86.5q0 -47 -16.5 -87t-45.5 -69t-69 -46t-86 -17zM1316 1781h452l-829 -2437h-452l280 781l-716 1656h471l446 -1099z" />
    <glyph glyph-name="dotlessi" unicode="&#x131;" horiz-adv-x="915" 
d="M234 1781h447v-1781h-447v1781z" />
    <glyph glyph-name="OE" unicode="&#x152;" horiz-adv-x="3228" 
d="M2371 1952q-105 0 -169 -13t-99 -48t-46.5 -96.5t-11.5 -157.5v-264h926v-376h-926v-302q0 -97 11.5 -158.5t46.5 -97t99 -48.5t169 -13h644v-366q-41 -2 -93 -4t-109.5 -4t-117.5 -4t-116.5 -3t-107.5 -2t-90 -1q-96 0 -188 3.5t-175 17t-155.5 41.5t-128.5 77
q-106 -81 -256.5 -119t-356.5 -38q-181 0 -320.5 29.5t-243 91t-174 157.5t-114 228t-62 302t-18.5 381t18.5 381t62 302t114 228t174 157.5t243 91t320.5 29.5q205 0 355.5 -38t256.5 -119q56 49 128.5 76.5t156 41.5t175.5 17.5t188 3.5q43 0 95 -0.5t109 -2t116.5 -3
t115.5 -3.5t107 -4t91 -4v-367h-644zM1121 366q110 0 186.5 26t126.5 75.5t78 120t41 159.5t16 194t3 224t-3 224.5t-16 194t-41 159.5t-78 120t-126.5 75.5t-186.5 26.5q-111 0 -187 -26.5t-126.5 -75.5t-78.5 -120t-41 -159.5t-16 -194t-3 -224.5t3 -224t16 -194
t41 -159.5t78.5 -120t126.5 -75.5t187 -26z" />
    <glyph glyph-name="oe" unicode="&#x153;" horiz-adv-x="3060" 
d="M962 1805q199 0 340.5 -41t236.5 -131q94 89 235 130.5t342 41.5q162 0 283.5 -28t208.5 -80.5t143.5 -129.5t89 -174.5t45.5 -215t13 -252.5q0 -71 -6 -143q-76 -14 -182.5 -28t-223 -26t-231 -21t-206.5 -14l-293 -15q6 -104 36.5 -171t83.5 -106t129 -54t172 -15
q181 0 342.5 15t299.5 32l37 -335q-71 -12 -152.5 -24t-177.5 -21.5t-207.5 -16t-241.5 -6.5q-185 0 -314.5 46.5t-217.5 131.5q-95 -94 -238 -136t-346 -42q-220 0 -372.5 49.5t-247 158.5t-136.5 283t-42 424q0 249 42 423t136.5 283t247 158.5t372.5 49.5zM962 1448
q-105 0 -173.5 -24.5t-108 -87t-55.5 -170.5t-16 -275q0 -168 15.5 -276t55.5 -170.5t108.5 -86.5t173.5 -24t173.5 26t108.5 90t56 171.5t16 269.5t-16 269t-56 171t-108.5 90.5t-173.5 26.5zM2050 997q44 2 97.5 6t107.5 8.5t105.5 10t90.5 10.5q2 15 2.5 35.5t0.5 35.5
q0 88 -17.5 155.5t-57 113.5t-104.5 69.5t-159 23.5q-123 0 -196 -36t-112 -100.5t-51 -153t-12 -193.5z" />
    <glyph glyph-name="Scaron" unicode="&#x160;" horiz-adv-x="1843" 
d="M1102 1969q-47 0 -100 -1.5t-105.5 -9t-100.5 -22.5t-85 -42t-59 -67.5t-22 -98.5q0 -88 29 -141.5t84.5 -88t134.5 -58t180 -50.5q167 -45 287.5 -103t198.5 -141.5t115 -198t37 -272.5q0 -193 -57.5 -326t-168 -216t-271.5 -120t-368 -37q-198 0 -364 20.5t-310 51.5
l46 373q64 -9 142 -18.5t160 -17t161.5 -12t147.5 -4.5q92 0 165 12t124 44.5t78 88.5t27 144q0 81 -30 134t-82.5 88.5t-122.5 60t-151 49.5q-157 48 -280 101t-208.5 130.5t-130.5 189t-45 276.5q0 189 55 317t161 206t261.5 111t356.5 33q92 0 184.5 -6.5t178.5 -16.5
t163.5 -23.5t139.5 -26.5l-42 -363q-57 9 -119.5 18t-128.5 16.5t-133 12t-133 4.5zM1164 2972h346l-414 -435h-273l-422 435h350l204 -231z" />
    <glyph glyph-name="scaron" unicode="&#x161;" horiz-adv-x="1633" 
d="M971 1459q-53 0 -115 -2.5t-115.5 -17t-89 -45.5t-35.5 -88q0 -59 31 -95.5t79 -60.5t106.5 -41t112.5 -35q74 -25 143.5 -48.5t130 -52.5t110.5 -67t86 -91.5t55.5 -127t19.5 -172.5q0 -106 -24.5 -186.5t-70 -140.5t-109 -100.5t-141 -65.5t-168 -35.5t-188.5 -10.5
q-77 0 -160 5t-165.5 15t-162 24.5t-148.5 32.5l42 330q50 -9 113 -19t128.5 -17.5t129 -12.5t114.5 -5q34 0 74 0.5t80 5t77.5 14t66.5 28.5t46.5 49t17.5 74q0 42 -12.5 72.5t-34.5 52.5t-51.5 36.5t-64 26t-71.5 21.5t-74 21q-69 21 -137.5 44t-131 53t-115.5 69.5
t-92.5 94.5t-61.5 127.5t-22 168.5q0 151 49.5 250.5t136 159t202.5 84t249 24.5q95 0 178 -4.5t161 -13.5t154.5 -23t160.5 -33l-42 -324q-107 21 -219.5 36.5t-232.5 15.5zM1017 2540h323l-387 -536h-255l-395 536h328l190 -285z" />
    <glyph glyph-name="Ydieresis" unicode="&#x178;" horiz-adv-x="2024" 
d="M694 2499q-47 0 -87.5 17t-70.5 46t-47.5 69t-17.5 87q0 46 17.5 86.5t47.5 70t70.5 46.5t87.5 17q46 0 86 -17t68.5 -46.5t45 -70t16.5 -86.5q0 -47 -16.5 -87t-45 -69t-68.5 -46t-86 -17zM1374 2499q-47 0 -87 17t-70 46t-47 69t-17 87q0 46 17 86.5t47 70t70 46.5
t87 17q46 0 86 -17t69 -46.5t45.5 -70t16.5 -86.5q0 -47 -16.5 -87t-45.5 -69t-69 -46t-86 -17zM1247 0h-474v898l-749 1432h509l480 -966l495 966h491l-752 -1432v-898z" />
    <glyph glyph-name="Zcaron" unicode="&#x17d;" horiz-adv-x="1890" 
d="M738 392h996v-392h-1343q-131 0 -198.5 46t-67.5 134q0 38 14 81.5t44 93.5l951 1586h-941v389h1286q134 0 199 -47.5t65 -131.5q0 -77 -59 -176zM762 2947l203 -231l209 231h346l-414 -435h-273l-421 435h350z" />
    <glyph glyph-name="zcaron" unicode="&#x17e;" horiz-adv-x="1807" 
d="M774 361h820v-361h-1266q-86 0 -134.5 39.5t-48.5 106.5q0 35 14 72t46 82l819 1135h-809v346h1250q84 0 133 -39.5t49 -106.5q0 -32 -14 -70.5t-45 -80.5zM736 2563l189 -285l196 285h323l-387 -536h-255l-394 536h328z" />
    <glyph glyph-name="florin" unicode="&#x192;" horiz-adv-x="1620" 
d="M641 1751q18 138 75 239t143 166t198 96.5t241 31.5q69 0 136.5 -7t129.5 -19l-47 -342q-45 7 -87.5 11t-84.5 4q-81 0 -132.5 -30t-83 -80t-47 -114t-24.5 -132l-18 -130h415l-46 -338h-415l-119 -871q-47 -347 -239.5 -518t-514.5 -171q-35 0 -66 1.5t-65 6.5l46 340
h52q159 0 242 73.5t103 226.5l122 912h-358l45 338h358z" />
    <glyph glyph-name="circumflex" unicode="&#x2c6;" horiz-adv-x="1213" 
d="M731 2412l394 -536h-328l-190 284l-195 -284h-324l388 536h255z" />
    <glyph glyph-name="tilde" unicode="&#x2dc;" horiz-adv-x="1234" 
d="M1095 2341q-8 -108 -36 -188t-68.5 -133t-90 -79t-100.5 -26t-89 13.5t-67 33.5t-51.5 44t-42 44t-38.5 33.5t-40 13.5q-38 0 -62.5 -41t-38.5 -133h-232q8 108 36 188t68.5 133t90 79t100.5 26t89 -13.5t67.5 -33.5t51.5 -44t41.5 -44t38 -33.5t40.5 -13.5
q38 0 62.5 40.5t38.5 133.5h232z" />
    <glyph glyph-name="endash" unicode="&#x2013;" horiz-adv-x="2025" 
d="M209 1054h1607v-337h-1607v337z" />
    <glyph glyph-name="emdash" unicode="&#x2014;" horiz-adv-x="3578" 
d="M209 1054h3160v-337h-3160v337z" />
    <glyph glyph-name="quoteleft" unicode="&#x2018;" horiz-adv-x="847" 
d="M443 2469h344l-199 -844h-467z" />
    <glyph glyph-name="quoteright" unicode="&#x2019;" horiz-adv-x="847" 
d="M319 2469h468l-322 -844h-344z" />
    <glyph glyph-name="quotesinglbase" unicode="&#x201a;" horiz-adv-x="864" 
d="M276 433h467l-322 -844h-344z" />
    <glyph glyph-name="quotedblleft" unicode="&#x201c;" horiz-adv-x="1514" 
d="M443 2469h344l-199 -844h-467zM1107 2469h346l-199 -844h-468z" />
    <glyph glyph-name="quotedblright" unicode="&#x201d;" horiz-adv-x="1514" 
d="M320 2469h467l-321 -844h-345zM985 2469h468l-322 -844h-344z" />
    <glyph glyph-name="quotedblbase" unicode="&#x201e;" horiz-adv-x="1530" 
d="M276 433h467l-321 -844h-345zM942 433h467l-322 -844h-344z" />
    <glyph glyph-name="dagger" unicode="&#x2020;" horiz-adv-x="1864" 
d="M707 2376h441v-592h603v-374h-603v-1830h-441v1830h-594v374h594v592z" />
    <glyph glyph-name="daggerdbl" unicode="&#x2021;" horiz-adv-x="1938" 
d="M747 670h-594v371h594v442h-594v376h594v517h438v-517h599v-376h-599v-442h599v-371h-599v-1090h-438v1090z" />
    <glyph glyph-name="bullet" unicode="&#x2022;" horiz-adv-x="1236" 
d="M617 653q-97 0 -182 36.5t-148 99.5t-99.5 148t-36.5 182q0 96 36.5 181t99.5 148.5t148 100t182 36.5q96 0 181 -36.5t148.5 -100t100 -148.5t36.5 -181q0 -97 -36.5 -182t-100 -148t-148.5 -99.5t-181 -36.5z" />
    <glyph glyph-name="ellipsis" unicode="&#x2026;" horiz-adv-x="3015" 
d="M441 -24q-77 0 -127.5 13t-80.5 43t-42 79t-12 121q0 73 12.5 122t43 79t81 42.5t125.5 12.5t125.5 -12.5t80.5 -42.5t43 -79t13 -122q0 -72 -12.5 -121t-42.5 -79t-80.5 -43t-126.5 -13zM1508 -24q-77 0 -127.5 13t-80.5 43t-42 79t-12 121q0 73 12.5 122t43 79t81 42.5
t125.5 12.5t125.5 -12.5t80.5 -42.5t43 -79t13 -122q0 -72 -12.5 -121t-42.5 -79t-80.5 -43t-126.5 -13zM2574 -24q-77 0 -127.5 13t-80.5 43t-42 79t-12 121q0 73 12.5 122t43 79t81 42.5t125.5 12.5t125.5 -12.5t80.5 -42.5t43 -79t13 -122q0 -72 -12.5 -121t-42.5 -79
t-80.5 -43t-126.5 -13z" />
    <glyph glyph-name="perthousand" unicode="&#x2030;" horiz-adv-x="4089" 
d="M640 957q-162 0 -263 43t-158 129t-77.5 216t-20.5 304t20.5 304.5t77.5 216.5t158 129t263 43q161 0 262 -43t158 -129t77.5 -216.5t20.5 -304.5t-20.5 -304t-77.5 -216t-158 -129t-262 -43zM640 1201q75 0 116 32t60.5 90.5t23.5 141.5t4 184t-4 183.5t-23.5 141.5
t-60.5 91.5t-116 32.5t-116 -32.5t-60.5 -91.5t-23.5 -141.5t-4 -183.5t3.5 -184t23 -141.5t61 -90.5t116.5 -32zM2223 -12q-161 0 -262 43t-158 129t-77.5 216.5t-20.5 304.5t20.5 304t77.5 216.5t158 129.5t262 43t262 -43t158 -129.5t77.5 -216.5t20.5 -304t-20.5 -304.5
t-77.5 -216.5t-158 -129t-262 -43zM2223 233q75 0 116 32t60.5 90.5t23.5 141.5t4 184t-4 184t-23.5 142t-60.5 91t-116 32t-116 -32t-60.5 -91t-23.5 -142t-4 -184t4 -184t23.5 -141.5t60.5 -90.5t116 -32zM3436 -12q-162 0 -263 43t-158 129t-77.5 216.5t-20.5 304.5
t20.5 304t77.5 216.5t158 129.5t263 43q161 0 262 -43t158 -129.5t77.5 -216.5t20.5 -304t-20.5 -304.5t-77.5 -216.5t-158 -129t-262 -43zM3436 233q74 0 115.5 32t61 90.5t23.5 141.5t4 184t-4 184t-23.5 142t-61 91t-115.5 32q-75 0 -116.5 -32t-61 -91t-23 -142
t-3.5 -184t3.5 -184t23 -141.5t61 -90.5t116.5 -32zM1960 2378h308l-1368 -2426h-307z" />
    <glyph glyph-name="guilsinglleft" unicode="&#x2039;" horiz-adv-x="1114" 
d="M987 172h-414l-488 690l488 690h414l-443 -690z" />
    <glyph glyph-name="guilsinglright" unicode="&#x203a;" horiz-adv-x="1115" 
d="M541 172h-413l443 690l-443 690h413l489 -690z" />
    <glyph glyph-name="Euro" unicode="&#x20ac;" horiz-adv-x="1842" 
d="M191 1468h173q18 212 68.5 366t145 254t239 148t351.5 48q154 0 286.5 -21t232.5 -53l-35 -354q-103 20 -205.5 32t-200.5 12q-116 0 -193 -31t-125.5 -87.5t-72.5 -136t-34 -177.5h698l-54 -248h-655v-162h619l-53 -247h-557q9 -103 32 -186t71 -142t126.5 -91
t197.5 -32q97 0 200 12t205 32l36 -356q-100 -32 -233 -52t-286 -20q-210 0 -355.5 49t-239.5 151.5t-143.5 260t-66.5 374.5h-247l53 247h183v72v45t1 45h-216z" />
    <glyph glyph-name="trademark" unicode="&#x2122;" horiz-adv-x="3192" 
d="M2653 932v964h-2l-376 -964h-188l-376 963h-2v-963h-285v1398h395l367 -933l361 933h390v-1398h-284zM1233 2083h-415v-1151h-285v1151h-415v247h1115v-247z" />
    </font>
</defs>
</svg>
